<svg width="31" height="30" viewBox="0 0 31 30" fill="none" xmlns="http://www.w3.org/2000/svg">
<path d="M15.3335 5.37793C11.1335 5.37793 7.3335 8.59793 7.3335 13.5779C7.3335 16.7579 9.7835 20.4979 14.6735 24.8079C15.0535 25.1379 15.6235 25.1379 16.0035 24.8079C20.8835 20.4979 23.3335 16.7579 23.3335 13.5779C23.3335 8.59793 19.5335 5.37793 15.3335 5.37793ZM15.3335 15.3779C14.2335 15.3779 13.3335 14.4779 13.3335 13.3779C13.3335 12.2779 14.2335 11.3779 15.3335 11.3779C16.4335 11.3779 17.3335 12.2779 17.3335 13.3779C17.3335 14.4779 16.4335 15.3779 15.3335 15.3779Z" fill="#E60C0C"/>
</svg>
