<svg width="89" height="64" viewBox="0 0 89 64" fill="none" xmlns="http://www.w3.org/2000/svg">
<path fill-rule="evenodd" clip-rule="evenodd" d="M88.3381 28.8451C88.3381 44.7758 75.4237 57.6901 59.493 57.6901C43.5623 57.6901 30.6479 44.7758 30.6479 28.8451C30.6479 12.9144 43.5623 0 59.493 0C75.4237 0 88.3381 12.9144 88.3381 28.8451ZM77.397 48.5536C72.6685 52.8516 66.3869 55.4713 59.4934 55.4713C44.7881 55.4713 32.8672 43.5503 32.8672 28.845C32.8672 14.1398 44.7881 2.21883 59.4934 2.21883C66.4215 2.21883 72.7315 4.86483 77.4681 9.20138C76.0762 7.92767 74.5622 6.81398 72.9549 5.87222C73.295 6.07341 73.6301 6.28315 73.96 6.50127L70.9868 8.45386C70.7443 8.63979 70.466 8.77364 70.1694 8.84701C69.8728 8.92038 69.5642 8.9317 69.263 8.88025C68.9618 8.8288 68.6745 8.7157 68.419 8.54803C68.1636 8.38035 67.9455 8.16173 67.7785 7.90585C67.6115 7.64996 67.4991 7.36235 67.4485 7.06102C67.3978 6.75969 67.4099 6.45114 67.4841 6.15471C67.5582 5.85828 67.6928 5.58035 67.8793 5.33836C68.0659 5.09636 68.3004 4.8955 68.5682 4.74838L69.4558 4.17147C70.0732 4.41133 70.6799 4.67671 71.2743 4.96682C68.0372 3.36981 64.4856 2.43594 60.8299 2.25238L59.2492 5.39185C59.071 5.76606 58.7916 6.08289 58.4425 6.30642C58.0935 6.52995 57.6889 6.65126 57.2744 6.65659C56.8962 6.65545 56.5245 6.55763 56.1947 6.37244C55.8649 6.18725 55.5879 5.92082 55.3901 5.59846C55.1922 5.27611 55.0801 4.90852 55.0642 4.53062C55.0484 4.15271 55.1294 3.77703 55.2996 3.43926L55.7878 2.48515C55.9514 2.45966 56.1152 2.4358 56.2792 2.41358C52.7423 2.84372 49.3222 3.98021 46.2248 5.76057C46.6038 5.54618 46.9886 5.34179 47.3788 5.14766L47.5785 8.69782C47.6003 9.10737 47.5082 9.51495 47.3123 9.8753C47.1165 10.2357 46.8246 10.5347 46.4691 10.7392C46.1366 10.9263 45.7615 11.0245 45.38 11.0244C44.9985 11.0243 44.6234 10.9258 44.2911 10.7384C43.9587 10.5511 43.6803 10.2812 43.4827 9.95481C43.2851 9.62845 43.175 9.25666 43.163 8.87533V7.81497C40.5003 9.88262 38.2586 12.434 36.5528 15.3293C36.7442 15.0078 36.9433 14.6906 37.1499 14.3781L39.1025 17.3514C39.2884 17.5939 39.4223 17.8721 39.4956 18.1688C39.569 18.4654 39.5803 18.774 39.5289 19.0752C39.4774 19.3764 39.3643 19.6637 39.1966 19.9191C39.029 20.1746 38.8103 20.3926 38.5545 20.5596C38.2986 20.7267 38.011 20.839 37.7096 20.8897C37.4083 20.9404 37.0998 20.9282 36.8033 20.8541C36.5069 20.78 36.229 20.6454 35.987 20.4588C35.745 20.2723 35.5441 20.0377 35.397 19.7699L34.8201 18.8824C35.0547 18.2785 35.3137 17.6848 35.5964 17.1029C35.3464 17.6118 35.1121 18.1296 34.8942 18.6557C33.7219 21.4858 33.0531 24.4813 32.901 27.5087L36.0399 29.0891C36.4141 29.2673 36.731 29.5468 36.9545 29.8958C37.178 30.2448 37.2993 30.6495 37.3047 31.0639C37.3035 31.4422 37.2057 31.8138 37.0205 32.1436C36.8353 32.4734 36.5689 32.7504 36.2465 32.9482C35.9242 33.1461 35.5566 33.2583 35.1787 33.2741C34.8008 33.2899 34.4251 33.2089 34.0873 33.0387L33.1332 32.5506C33.1093 32.3973 33.0869 32.2439 33.0659 32.0902C33.1459 32.7421 33.2503 33.3923 33.379 34.0396C33.9542 36.9313 35.0023 39.6912 36.4669 42.2139C36.2317 41.8027 36.0083 41.3845 35.7971 40.9599L39.3473 40.7602C39.7568 40.7384 40.1644 40.8305 40.5247 41.0264C40.8851 41.2222 41.1841 41.5141 41.3886 41.8696C41.5757 42.2021 41.674 42.5772 41.6738 42.9587C41.6737 43.3402 41.5752 43.7153 41.3878 44.0476C41.2005 44.38 40.9306 44.6584 40.6042 44.856C40.2779 45.0536 39.9061 45.1637 39.5248 45.1757H38.4635C39.1424 46.05 39.8776 46.8842 40.6661 47.6727C42.2731 49.2797 44.0702 50.6655 46.0092 51.8043C45.677 51.6073 45.3496 51.4021 45.0271 51.1889L48.0004 49.2363C48.2429 49.0504 48.5211 48.9165 48.8178 48.8431C49.1144 48.7698 49.423 48.7584 49.7242 48.8099C50.0254 48.8613 50.3127 48.9745 50.5681 49.1421C50.8236 49.3098 51.0416 49.5284 51.2087 49.7843C51.3757 50.0402 51.488 50.3278 51.5387 50.6291C51.5894 50.9305 51.5772 51.239 51.5031 51.5354C51.429 51.8319 51.2944 52.1098 51.1078 52.3518C50.9213 52.5938 50.6867 52.7947 50.4189 52.9418L49.5314 53.5187C48.9183 53.2805 48.3158 53.0172 47.7253 52.7294C49.7988 53.7511 52.0076 54.5039 54.2991 54.9597C55.5772 55.2139 56.8668 55.3729 58.1577 55.4378L59.7384 52.2983C59.9166 51.9241 60.196 51.6073 60.5451 51.3838C60.8941 51.1602 61.2988 51.0389 61.7132 51.0336C62.0914 51.0347 62.4631 51.1325 62.7929 51.3177C63.1227 51.5029 63.3997 51.7694 63.5975 52.0917C63.7954 52.4141 63.9076 52.7817 63.9234 53.1596C63.9392 53.5375 63.8582 53.9132 63.688 54.2509L63.1998 55.205C63.0382 55.2302 62.8764 55.2538 62.7144 55.2758C65.0968 54.9855 67.4417 54.3729 69.683 53.4445C72.5319 52.2645 75.1385 50.6053 77.397 48.5536ZM79.1811 10.9185C83.4915 15.6497 86.1196 21.9405 86.1196 28.845C86.1196 36.6568 82.7555 43.6829 77.397 48.5536C78.9956 47.1014 80.42 45.4525 81.6325 43.6378C81.9224 43.204 82.1989 42.7626 82.4618 42.3143C82.2619 42.6518 82.0536 42.9845 81.8371 43.312L79.8845 40.3388C79.6986 40.0963 79.5647 39.818 79.4914 39.5214C79.418 39.2248 79.4067 38.9162 79.4581 38.615C79.5096 38.3138 79.6227 38.0265 79.7903 37.771C79.958 37.5156 80.1766 37.2975 80.4325 37.1305C80.6884 36.9635 80.976 36.8511 81.2773 36.8005C81.5787 36.7498 81.8872 36.7619 82.1837 36.8361C82.4801 36.9102 82.758 37.0448 83 37.2313C83.242 37.4179 83.4429 37.6524 83.59 37.9202L84.1669 38.8078C83.9251 39.4302 83.6573 40.0418 83.3644 40.6409C84.9738 37.3841 85.9032 33.8249 86.0863 30.182L82.9464 28.601C82.5722 28.4228 82.2553 28.1434 82.0318 27.7944C81.8083 27.4454 81.687 27.0407 81.6816 26.6263C81.6828 26.248 81.7806 25.8764 81.9658 25.5466C82.151 25.2168 82.4174 24.9398 82.7398 24.7419C83.0621 24.5441 83.4297 24.4319 83.8076 24.4161C84.1855 24.4002 84.5612 24.4813 84.899 24.6515L85.8531 25.1396C85.8809 25.318 85.9067 25.4967 85.9306 25.6755C85.5009 22.0907 84.3477 18.6429 82.5559 15.5375C82.7783 15.929 82.99 16.3267 83.1908 16.7302L79.6406 16.9299C79.2311 16.9517 78.8235 16.8596 78.4631 16.6637C78.1028 16.4679 77.8037 16.176 77.5993 15.8205C77.4121 15.488 77.3139 15.1129 77.314 14.7314C77.3141 14.3499 77.4127 13.9748 77.6 13.6425C77.7874 13.3102 78.0573 13.0317 78.3836 12.8341C78.71 12.6365 79.0818 12.5264 79.4631 12.5144H80.5239C80.0986 11.9668 79.6508 11.4343 79.1811 10.9185ZM64.09 43.6875C66.4345 42.9488 68.5703 41.6642 70.3216 39.9393C72.3841 37.9146 73.8408 35.3546 74.5277 32.5472C75.2146 29.7398 75.1046 26.7964 74.2101 24.0481C73.3155 21.2998 71.6718 18.8557 69.464 16.9906C67.2561 15.1254 64.5716 13.9133 61.7125 13.4906C60.2433 13.2465 58.7439 13.2465 57.2748 13.4906C54.8403 13.8306 52.5212 14.7435 50.5082 16.1544C48.4953 17.5652 46.8459 19.4337 45.6958 21.6062C44.5456 23.7786 43.9276 26.1931 43.8924 28.651C43.8572 31.1089 44.4059 33.54 45.4933 35.7446C46.5808 37.9491 48.176 39.864 50.1477 41.3319C52.1195 42.7998 54.4115 43.7788 56.8353 44.1883C59.2591 44.5978 61.7455 44.4261 64.09 43.6875ZM71.6093 52.5423L71.4096 48.9921C71.3878 48.5826 71.4799 48.175 71.6758 47.8146C71.8716 47.4543 72.1635 47.1553 72.519 46.9508C72.8467 46.7657 73.216 46.667 73.5923 46.6639C73.9686 46.6609 74.3395 46.7536 74.6701 46.9333C75.0007 47.113 75.2802 47.3739 75.4822 47.6913C75.6843 48.0088 75.8023 48.3724 75.8251 48.7481V49.8131C74.5168 50.8645 73.1041 51.779 71.6093 52.5423Z" fill="#0E0E0E"/>
<circle cx="59.4929" cy="28.8451" r="16.2254" fill="#F1F4F8"/>
<path fill-rule="evenodd" clip-rule="evenodd" d="M57.6901 35.1549C57.6901 51.0856 44.7758 64 28.8451 64C12.9144 64 0 51.0856 0 35.1549C0 19.2242 12.9144 6.30984 28.8451 6.30984C44.7758 6.30984 57.6901 19.2242 57.6901 35.1549ZM55.4716 35.1549C55.4716 49.8602 43.5507 61.7812 28.8454 61.7812C21.8912 61.7812 15.5597 59.1152 10.8172 54.7495C12.2147 56.0353 13.7402 57.1628 15.3652 58.1168C15.0316 57.9189 14.7026 57.7129 14.3787 57.4987L17.352 55.5461C17.5944 55.3602 17.8727 55.2263 18.1693 55.153C18.4659 55.0796 18.7745 55.0683 19.0757 55.1197C19.3769 55.1712 19.6642 55.2843 19.9197 55.452C20.1751 55.6196 20.3932 55.8383 20.5602 56.0941C20.7272 56.35 20.8396 56.6376 20.8903 56.939C20.9409 57.2403 20.9288 57.5489 20.8547 57.8453C20.7805 58.1417 20.646 58.4196 20.4594 58.6616C20.2728 58.9036 20.0383 59.1045 19.7705 59.2516L18.883 59.8285C18.2681 59.5897 17.6639 59.3255 17.0718 59.0368C19.1468 60.0598 21.3573 60.8134 23.6507 61.2695C24.9287 61.5238 26.2184 61.6828 27.5093 61.7476L29.09 58.6082C29.2682 58.234 29.5476 57.9171 29.8966 57.6936C30.2457 57.4701 30.6503 57.3488 31.0648 57.3434C31.443 57.3446 31.8147 57.4424 32.1445 57.6276C32.4742 57.8128 32.7512 58.0792 32.9491 58.4016C33.1469 58.7239 33.2591 59.0915 33.2749 59.4694C33.2908 59.8473 33.2097 60.223 33.0395 60.5608L32.5514 61.5149C32.3891 61.5402 32.2267 61.5638 32.064 61.5859C34.4471 61.2957 36.7927 60.683 39.0346 59.7544C43.8999 57.7391 48.0584 54.3263 50.9841 49.9477C51.2729 49.5154 51.5484 49.0757 51.8104 48.6291C51.6115 48.965 51.4041 49.296 51.1887 49.622L49.2361 46.6487C49.0501 46.4062 48.9163 46.1279 48.8429 45.8313C48.7695 45.5347 48.7582 45.2261 48.8097 44.9249C48.8611 44.6237 48.9742 44.3364 49.1419 44.081C49.3096 43.8255 49.5282 43.6074 49.7841 43.4404C50.04 43.2734 50.3276 43.1611 50.6289 43.1104C50.9302 43.0597 51.2388 43.0718 51.5352 43.146C51.8317 43.2201 52.1096 43.3547 52.3516 43.5412C52.5936 43.7278 52.7944 43.9623 52.9416 44.2301L53.5185 45.1177C53.2772 45.7386 53.0102 46.3487 52.7182 46.9464C54.3262 43.6907 55.2549 40.133 55.4379 36.4916L52.2984 34.9109C51.9242 34.7327 51.6073 34.4533 51.3838 34.1042C51.1603 33.7552 51.039 33.3506 51.0336 32.9361C51.0348 32.5579 51.1326 32.1862 51.3178 31.8564C51.503 31.5266 51.7694 31.2497 52.0918 31.0518C52.4141 30.8539 52.7817 30.7418 53.1596 30.7259C53.5375 30.7101 53.9132 30.7911 54.251 30.9613L55.2051 31.4495C55.2313 31.6175 55.2557 31.7857 55.2784 31.9542C54.8458 28.381 53.6943 24.9446 51.9081 21.8486C52.1303 22.2396 52.3418 22.637 52.5423 23.0401L48.9922 23.2398C48.5826 23.2616 48.175 23.1694 47.8147 22.9736C47.4543 22.7777 47.1553 22.4859 46.9508 22.1303C46.7637 21.7979 46.6655 21.4228 46.6656 21.0412C46.6657 20.6597 46.7642 20.2847 46.9516 19.9523C47.1389 19.62 47.4088 19.3416 47.7352 19.144C48.0615 18.9464 48.4333 18.8362 48.8147 18.8242H49.8754C49.1976 17.9514 48.4625 17.1171 47.6728 16.3274C46.0552 14.7098 44.251 13.3219 42.3107 12.1845C42.6493 12.385 42.983 12.5939 43.3116 12.8111L40.3383 14.7637C40.0959 14.9496 39.8176 15.0835 39.521 15.1568C39.2243 15.2302 38.9158 15.2415 38.6146 15.1901C38.3134 15.1386 38.026 15.0255 37.7706 14.8579C37.5152 14.6902 37.2971 14.4716 37.1301 14.2157C36.9631 13.9598 36.8507 13.6722 36.8 13.3709C36.7494 13.0695 36.7615 12.761 36.8356 12.4645C36.9098 12.1681 37.0443 11.8902 37.2309 11.6482C37.4174 11.4062 37.652 11.2053 37.9198 11.0582L38.8073 10.4813C39.4231 10.7205 40.0283 10.9852 40.6213 11.2744C37.3854 9.67878 33.8354 8.74571 30.1815 8.56225L28.6008 11.7017C28.4226 12.076 28.1431 12.3928 27.7941 12.6163C27.4451 12.8398 27.0404 12.9611 26.626 12.9665C26.2477 12.9653 25.8761 12.8675 25.5463 12.6823C25.2165 12.4971 24.9395 12.2307 24.7417 11.9084C24.5438 11.586 24.4316 11.2184 24.4158 10.8405C24.4 10.4626 24.481 10.0869 24.6512 9.74915L25.1394 8.79504C25.3036 8.76944 25.4681 8.7455 25.6327 8.72321C22.0753 9.15557 18.636 10.3025 15.5244 12.1004C15.9204 11.8751 16.3228 11.6607 16.7312 11.4575L16.9309 15.0077C16.9527 15.4172 16.8606 15.8248 16.6647 16.1851C16.4689 16.5455 16.177 16.8445 15.8215 17.049C15.489 17.2361 15.1139 17.3344 14.7324 17.3342C14.3509 17.3341 13.9758 17.2356 13.6435 17.0482C13.3112 16.8609 13.0327 16.591 12.8351 16.2646C12.6375 15.9383 12.5274 15.5665 12.5154 15.1852V14.1242C11.9407 14.5704 11.3857 15.0391 10.8514 15.529C15.5901 11.1819 21.9079 8.52873 28.8454 8.52873C43.5507 8.52873 55.4716 20.4497 55.4716 35.1549ZM9.22326 17.1567C4.87394 21.896 2.21918 28.2154 2.21918 35.1549C2.21918 42.0921 4.87211 48.4096 9.21876 53.1482C8.72734 52.6122 8.25916 52.0575 7.81507 51.4856H8.87632C9.25765 51.4736 9.62945 51.3635 9.9558 51.1659C10.2822 50.9683 10.552 50.6898 10.7394 50.3575C10.9268 50.0252 11.0253 49.6501 11.0254 49.2686C11.0255 48.8871 10.9273 48.512 10.7402 48.1795C10.5357 47.824 10.2367 47.5321 9.8763 47.3363C9.51595 47.1404 9.10837 47.0483 8.69882 47.0701L5.14865 47.2698C5.35958 47.6938 5.58261 48.1113 5.81743 48.522C4.35335 45.9997 3.30566 43.2405 2.73059 40.3495C2.6019 39.7025 2.4976 39.0525 2.41756 38.4009C2.43853 38.5543 2.46095 38.7075 2.48479 38.8605L3.4389 39.3486C3.77667 39.5188 4.15235 39.5999 4.53026 39.5841C4.90816 39.5682 5.27575 39.4561 5.5981 39.2582C5.92046 39.0603 6.18689 38.7834 6.37208 38.4536C6.55727 38.1238 6.65509 37.7521 6.65623 37.3739C6.6509 36.9594 6.52959 36.5548 6.30606 36.2057C6.08253 35.8567 5.7657 35.5773 5.39149 35.3991L2.25253 33.8186C2.40468 30.7912 3.07347 27.7957 4.24578 24.9655C4.46336 24.4402 4.69724 23.9232 4.94686 23.415C4.6646 23.9963 4.40596 24.5891 4.17166 25.1922L4.74856 26.0798C4.89569 26.3476 5.09654 26.5821 5.33854 26.7687C5.58054 26.9552 5.85846 27.0898 6.15489 27.1639C6.45132 27.2381 6.75987 27.2502 7.0612 27.1995C7.36253 27.1489 7.65015 27.0365 7.90603 26.8695C8.16191 26.7025 8.38054 26.4844 8.54821 26.229C8.71588 25.9735 8.82899 25.6862 8.88044 25.385C8.93188 25.0838 8.92057 24.7752 8.84719 24.4786C8.77382 24.182 8.63997 23.9037 8.45404 23.6612L6.50145 20.688C6.29542 20.9996 6.09686 21.3159 5.90592 21.6366C6.8531 20.0293 7.96543 18.5281 9.22326 17.1567ZM33.4416 49.9973C35.7861 49.2587 37.9218 47.9741 39.6732 46.2492C41.7357 44.2245 43.1923 41.6644 43.8793 38.8571C44.5662 36.0497 44.4562 33.1063 43.5616 30.358C42.6671 27.6097 41.0234 25.1655 38.8155 23.3004C36.6077 21.4353 33.9232 20.2232 31.0641 19.8005C29.5949 19.5563 28.0955 19.5563 26.6264 19.8005C24.1918 20.1404 21.8727 21.0534 19.8598 22.4642C17.8468 23.8751 16.1975 25.7435 15.0473 27.916C13.8972 30.0885 13.2791 32.503 13.2439 34.9609C13.2088 37.4187 13.7574 39.8499 14.8449 42.0544C15.9324 44.2589 17.5276 46.1739 19.4993 47.6418C21.471 49.1097 23.763 50.0886 26.1868 50.4981C28.6106 50.9076 31.097 50.736 33.4416 49.9973ZM40.9609 58.8522L40.7612 55.302C40.7394 54.8925 40.8315 54.4849 41.0273 54.1246C41.2232 53.7642 41.5151 53.4652 41.8706 53.2607C42.1982 53.0756 42.5676 52.9769 42.9439 52.9738C43.3202 52.9708 43.6911 53.0635 44.0217 53.2432C44.3523 53.4229 44.6318 53.6838 44.8338 54.0013C45.0359 54.3187 45.1538 54.6824 45.1767 55.058V56.123C43.8683 57.1744 42.4557 58.0889 40.9609 58.8522Z" fill="#0E0E0E"/>
<circle cx="28.8445" cy="35.1549" r="16.2254" fill="#F1F4F8"/>
<path d="M21.6333 35.1549L27.0418 40.5634L36.0558 29.7465" stroke="#E60C0C" stroke-width="6" stroke-linecap="round" stroke-linejoin="round"/>
</svg>
