<svg width="30" height="30" viewBox="0 0 30 30" fill="none" xmlns="http://www.w3.org/2000/svg">
<path d="M7.22019 9.1589L9.49495 6.88628C9.65541 6.72511 9.84614 6.59723 10.0562 6.50999C10.2662 6.42276 10.4914 6.37788 10.7188 6.37793C11.1823 6.37793 11.6181 6.55948 11.9448 6.88628L14.3926 9.33405C14.5538 9.49451 14.6817 9.68524 14.7689 9.89527C14.8561 10.1053 14.901 10.3305 14.901 10.5579C14.901 11.0214 14.7194 11.4572 14.3926 11.7839L12.6027 13.5739C13.0217 14.4973 13.6042 15.3375 14.3221 16.0537C15.0383 16.7733 15.8783 17.358 16.8019 17.7795L18.5918 15.9896C18.7523 15.8284 18.943 15.7005 19.1531 15.6133C19.3631 15.5261 19.5883 15.4812 19.8157 15.4812C20.2792 15.4812 20.7149 15.6628 21.0417 15.9896L23.4916 18.4352C23.653 18.596 23.781 18.7871 23.8682 18.9975C23.9555 19.2079 24.0003 19.4335 24 19.6612C24 20.1247 23.8184 20.5605 23.4916 20.8872L21.2212 23.1577C20.7 23.681 19.9802 23.9779 19.2412 23.9779C19.0852 23.9779 18.9357 23.9651 18.7883 23.9395C15.9091 23.4653 13.0534 21.9339 10.7487 19.6313C8.44621 17.3309 6.91689 14.4773 6.4363 11.5896C6.29106 10.7074 6.58368 9.79968 7.22019 9.1589Z" fill="#E60C0C"/>
</svg>
