<svg width="31" height="30" viewBox="0 0 31 30" fill="none" xmlns="http://www.w3.org/2000/svg">
<path d="M15.467 6.37793C10.6057 6.37793 6.66699 10.3166 6.66699 15.1779C6.66699 20.0392 10.6057 23.9779 15.467 23.9779C20.3283 23.9779 24.267 20.0392 24.267 15.1779C24.267 10.3166 20.3283 6.37793 15.467 6.37793ZM18.7489 17.4844L18.0392 18.3715C17.9926 18.4297 17.9351 18.4782 17.8697 18.5142C17.8044 18.5501 17.7327 18.5729 17.6586 18.5811C17.5845 18.5894 17.5095 18.5829 17.4379 18.5622C17.3662 18.5414 17.2994 18.5068 17.2412 18.4602L14.8638 16.6959C14.6977 16.5629 14.5636 16.3943 14.4714 16.2025C14.3793 16.0106 14.3315 15.8006 14.3315 15.5878V10.0683C14.3315 9.91768 14.3913 9.77327 14.4978 9.6668C14.6043 9.56033 14.7487 9.50051 14.8992 9.50051H16.0347C16.1853 9.50051 16.3297 9.56033 16.4362 9.6668C16.5427 9.77327 16.6025 9.91768 16.6025 10.0683V15.1779L18.6605 16.686C18.7188 16.7326 18.7673 16.7902 18.8033 16.8556C18.8392 16.9209 18.862 16.9927 18.8702 17.0669C18.8784 17.141 18.8719 17.2161 18.8511 17.2877C18.8303 17.3593 18.7955 17.4262 18.7489 17.4844Z" fill="#E60C0C"/>
</svg>
