<svg width="48" height="48" viewBox="0 0 48 48" fill="none" xmlns="http://www.w3.org/2000/svg">
<path d="M17 46C25.2843 46 32 39.2843 32 31C32 22.7157 25.2843 16 17 16C8.71573 16 2 22.7157 2 31C2 39.2843 8.71573 46 17 46Z" fill="#E3EAF0"/>
<path d="M34 19H40V22C40 22.5304 39.7893 23.0391 39.4142 23.4142C39.0391 23.7893 38.5304 24 38 24H36C35.4696 24 34.9609 23.7893 34.5858 23.4142C34.2107 23.0391 34 22.5304 34 22V19Z" fill="#F8F9F9"/>
<path d="M24 31C24.0005 32.7183 23.3691 34.3767 22.2259 35.6595C21.0827 36.9423 19.5076 37.7598 17.8006 37.9563C16.0936 38.1528 14.374 37.7146 12.9692 36.7252C11.5644 35.7357 10.5726 34.2641 10.1826 32.5907C9.79271 30.9173 10.0319 29.1589 10.8547 27.6504C11.6774 26.1419 13.0262 24.9887 14.6443 24.4105C16.2623 23.8322 18.0365 23.8693 19.629 24.5146C21.2215 25.16 22.521 26.3685 23.28 27.91C23.7494 28.8727 23.9955 29.929 24 31Z" fill="#F8F9F9"/>
<path d="M18.6199 31.5301L21.8799 36.0001C21.3995 36.4721 20.8539 36.8728 20.2599 37.1901L16.9999 32.7001L13.7399 37.2001C13.1452 36.8798 12.5996 36.4756 12.1199 36.0001L15.3799 31.5201L10.1099 29.8001C10.2142 29.1391 10.4199 28.4982 10.7199 27.9001L15.9999 29.6201V24.0801C16.662 23.9701 17.3377 23.9701 17.9999 24.0801V29.6201L23.2799 27.9101C23.5798 28.5082 23.7855 29.1491 23.8899 29.8101L18.6199 31.5301Z" fill="#E60C0C"/>
<path d="M17 34C18.6569 34 20 32.6569 20 31C20 29.3431 18.6569 28 17 28C15.3431 28 14 29.3431 14 31C14 32.6569 15.3431 34 17 34Z" fill="#E60C0C"/>
<path d="M17 32C17.5523 32 18 31.5523 18 31C18 30.4477 17.5523 30 17 30C16.4477 30 16 30.4477 16 31C16 31.5523 16.4477 32 17 32Z" fill="#F8F9F9"/>
<path d="M37 20C41.9706 20 46 15.9706 46 11C46 6.02944 41.9706 2 37 2C32.0294 2 28 6.02944 28 11C28 15.9706 32.0294 20 37 20Z" fill="#F8F9F9"/>
<path d="M43.5502 17.16C42.7088 18.0529 41.6937 18.7643 40.5673 19.2506C39.441 19.7369 38.2271 19.9877 37.0002 19.9877C35.7733 19.9877 34.5594 19.7369 33.433 19.2506C32.3067 18.7643 31.2916 18.0529 30.4502 17.16C32.3452 15.7555 34.6415 14.9973 37.0002 14.9973C39.3589 14.9973 41.6552 15.7555 43.5502 17.16Z" fill="#E3EAF0"/>
<path d="M37 9C37 9 35.5 13 35.5 14.5C35.5 14.8978 35.658 15.2794 35.9393 15.5607C36.2206 15.842 36.6022 16 37 16C37.3978 16 37.7794 15.842 38.0607 15.5607C38.342 15.2794 38.5 14.8978 38.5 14.5C38.5 13 37 9 37 9Z" fill="#E60C0C"/>
<path d="M44.0801 3.93998C43.042 2.89551 41.7861 2.09318 40.402 1.59034C39.0179 1.08749 37.5399 0.896531 36.0735 1.0311C34.607 1.16567 33.1884 1.62245 31.919 2.3688C30.6496 3.11516 29.5606 4.13266 28.73 5.34863C27.8994 6.56459 27.3475 7.949 27.1139 9.40294C26.8803 10.8569 26.9707 12.3445 27.3787 13.7594C27.7866 15.1744 28.502 16.4818 29.4737 17.5882C30.4455 18.6947 31.6496 19.5728 33.0001 20.16V22C33.0001 22.7956 33.3162 23.5587 33.8788 24.1213C34.4414 24.6839 35.2045 25 36.0001 25V36C36.0001 36.5304 35.7894 37.0391 35.4143 37.4142C35.0392 37.7893 34.5305 38 34.0001 38H31.3801C32.5203 35.6675 33.0735 33.0917 32.9916 30.4967C32.9097 27.9017 32.1952 25.366 30.9101 23.11L30.7901 22.91C28.6616 19.2878 25.1937 16.6481 21.1355 15.5611C17.0772 14.474 12.7543 15.0268 9.1001 17.1L9.0001 17.16C6.5984 18.5425 4.59917 20.5279 3.2001 22.92L3.1201 23.06C1.04375 26.6991 0.477665 31.0074 1.54347 35.0593C2.60928 39.1113 5.22194 42.5835 8.8201 44.73C8.90393 44.7959 8.99442 44.8529 9.0901 44.9C12.5839 46.8862 16.6972 47.4849 20.6122 46.577C24.5272 45.6692 27.9571 43.3212 30.2201 40H34.0001C35.061 40 36.0784 39.5786 36.8285 38.8284C37.5787 38.0783 38.0001 37.0609 38.0001 36V25C38.7958 25 39.5588 24.6839 40.1214 24.1213C40.684 23.5587 41.0001 22.7956 41.0001 22V20.16C42.4904 19.5086 43.7993 18.5035 44.8134 17.2319C45.8275 15.9603 46.5161 14.4605 46.8195 12.8626C47.1229 11.2647 47.032 9.6169 46.5547 8.06208C46.0773 6.50726 45.2279 5.09233 44.0801 3.93998ZM25.3901 42.2V41.7C25.3742 41.4348 25.2536 41.1867 25.0548 41.0105C24.856 40.8342 24.5953 40.7441 24.3301 40.76C24.0649 40.7759 23.8169 40.8965 23.6406 41.0953C23.4643 41.2941 23.3742 41.5548 23.3901 41.82L23.4801 43.42C21.9869 44.201 20.3636 44.7026 18.6901 44.9L18.9101 44.45C19.0072 44.2169 19.0125 43.9557 18.9249 43.7189C18.8374 43.482 18.6635 43.2871 18.4382 43.1731C18.2128 43.0592 17.9527 43.0347 17.7101 43.1046C17.4675 43.1745 17.2603 43.3336 17.1301 43.55L16.3901 45C14.706 44.9319 13.0486 44.5557 11.5001 43.89L11.9201 43.61C12.1368 43.4621 12.2866 43.2349 12.3374 42.9775C12.3881 42.7201 12.3357 42.4531 12.1914 42.234C12.0471 42.0149 11.8224 41.8613 11.5659 41.8063C11.3094 41.7513 11.0416 41.7993 10.8201 41.94L9.4801 42.83C8.05689 41.9135 6.81033 40.7483 5.8001 39.39H6.3001C6.43142 39.3821 6.55991 39.3484 6.67822 39.2909C6.79653 39.2334 6.90235 39.1531 6.98964 39.0547C7.07692 38.9562 7.14397 38.8416 7.18694 38.7172C7.22992 38.5929 7.24798 38.4613 7.2401 38.33C7.23222 38.1987 7.19856 38.0702 7.14102 37.9519C7.08349 37.8336 7.00321 37.7277 6.90478 37.6405C6.80635 37.5532 6.69169 37.4861 6.56735 37.4431C6.44301 37.4002 6.31142 37.3821 6.1801 37.39L4.5801 37.48C3.79842 35.98 3.29688 34.35 3.1001 32.67C3.36892 32.8513 3.67779 32.9646 4.0001 33C4.22402 32.9987 4.44102 32.9222 4.61633 32.7829C4.79164 32.6436 4.91512 32.4495 4.96698 32.2316C5.01885 32.0138 4.9961 31.7848 4.90238 31.5815C4.80866 31.3781 4.6494 31.2121 4.4501 31.11L3.0001 30.39C3.07448 28.7046 3.45749 27.0471 4.1301 25.5L4.4101 25.92C4.48126 26.032 4.574 26.1288 4.68293 26.2046C4.79186 26.2804 4.91479 26.3338 5.04456 26.3616C5.17432 26.3894 5.30833 26.3911 5.43877 26.3667C5.56921 26.3422 5.69347 26.292 5.8043 26.2189C5.91513 26.1459 6.01033 26.0516 6.08433 25.9414C6.15834 25.8313 6.20967 25.7075 6.23534 25.5773C6.26101 25.447 6.26051 25.313 6.23385 25.183C6.2072 25.053 6.15493 24.9296 6.0801 24.82L5.1901 23.48C6.10062 22.0585 7.259 20.812 8.6101 19.8V20.3C8.62602 20.5652 8.74663 20.8132 8.94542 20.9895C9.14421 21.1658 9.40489 21.2559 9.6701 21.24C9.93532 21.2241 10.1834 21.1035 10.3596 20.9047C10.5359 20.7059 10.626 20.4452 10.6101 20.18L10.5201 18.58C12.014 17.8006 13.637 17.2991 15.3101 17.1L15.0901 17.55C14.993 17.7831 14.9877 18.0443 15.0753 18.2811C15.1628 18.5179 15.3367 18.7129 15.562 18.8268C15.7874 18.9407 16.0475 18.9652 16.2901 18.8953C16.5327 18.8254 16.7399 18.6663 16.8701 18.45L17.6101 17C19.2942 17.068 20.9516 17.4442 22.5001 18.11L22.0801 18.39C21.8634 18.5379 21.7136 18.765 21.6628 19.0224C21.6121 19.2798 21.6645 19.5468 21.8088 19.7659C21.9531 19.985 22.1778 20.1386 22.4343 20.1936C22.6908 20.2486 22.9587 20.2006 23.1801 20.06L24.5201 19.17C25.9416 20.0805 27.1881 21.2389 28.2001 22.59H27.7001C27.4349 22.6059 27.1869 22.7265 27.0106 22.9253C26.8343 23.1241 26.7442 23.3848 26.7601 23.65C26.776 23.9152 26.8966 24.1632 27.0954 24.3395C27.2942 24.5158 27.5549 24.6059 27.8201 24.59L29.4201 24.5C30.1976 25.9946 30.699 27.6173 30.9001 29.29L30.4501 29.07C30.217 28.9729 29.9558 28.9676 29.719 29.0552C29.4822 29.1427 29.2872 29.3166 29.1733 29.5419C29.0593 29.7673 29.0349 30.0273 29.1048 30.27C29.1747 30.5126 29.3338 30.7198 29.5501 30.85L30.9801 31.57C30.898 33.8336 30.2592 36.0421 29.1201 38H22.6401C24.2919 36.6651 25.4185 34.7891 25.8205 32.7037C26.2225 30.6183 25.8741 28.4579 24.8369 26.6046C23.7997 24.7513 22.1406 23.3246 20.1528 22.5766C18.1651 21.8287 15.9769 21.8077 13.9753 22.5175C11.9736 23.2273 10.2874 24.6221 9.215 26.4553C8.14255 28.2884 7.75291 30.4417 8.11499 32.5344C8.47707 34.6271 9.56754 36.5243 11.1935 37.8905C12.8196 39.2568 14.8763 40.004 17.0001 40H27.7101C27.0271 40.823 26.2482 41.5616 25.3901 42.2ZM10.0001 31C10.0001 29.6155 10.4106 28.2621 11.1798 27.111C11.949 25.9598 13.0422 25.0626 14.3213 24.5328C15.6004 24.003 17.0079 23.8644 18.3657 24.1345C19.7236 24.4046 20.9709 25.0713 21.9499 26.0502C22.9288 27.0292 23.5955 28.2765 23.8656 29.6343C24.1357 30.9922 23.9971 32.3997 23.4673 33.6788C22.9374 34.9579 22.0402 36.0511 20.8891 36.8203C19.738 37.5894 18.3846 38 17.0001 38C15.1436 38 13.3631 37.2625 12.0504 35.9497C10.7376 34.637 10.0001 32.8565 10.0001 31ZM39.0001 22C39.0001 22.2652 38.8947 22.5196 38.7072 22.7071C38.5197 22.8946 38.2653 23 38.0001 23H36.0001C35.7349 23 35.4805 22.8946 35.293 22.7071C35.1055 22.5196 35.0001 22.2652 35.0001 22V20.8C36.3198 21.0694 37.6804 21.0694 39.0001 20.8V22ZM40.5501 18.16C39.407 18.7268 38.1449 19.0119 36.8691 18.9916C35.5933 18.9713 34.3409 18.6461 33.2164 18.0433C32.0919 17.4404 31.1279 16.5773 30.4049 15.526C29.6819 14.4747 29.2208 13.2657 29.0601 12H30.0001C30.2653 12 30.5197 11.8946 30.7072 11.7071C30.8947 11.5196 31.0001 11.2652 31.0001 11C31.0001 10.7348 30.8947 10.4804 30.7072 10.2929C30.5197 10.1053 30.2653 9.99998 30.0001 9.99998H29.0601C29.244 8.57736 29.8069 7.23034 30.6901 6.09998C31.2701 6.68998 31.5201 7.09998 32.0501 7.09998C32.2487 7.10114 32.4432 7.04312 32.6087 6.93332C32.7742 6.82351 32.9033 6.66691 32.9795 6.48346C33.0556 6.30002 33.0755 6.09805 33.0364 5.9033C32.9973 5.70855 32.9011 5.52985 32.7601 5.38998L32.1001 4.73998C33.225 3.83888 34.5725 3.25843 36.0001 3.05998V3.99998C36.0001 4.2652 36.1055 4.51955 36.293 4.70709C36.4805 4.89463 36.7349 4.99998 37.0001 4.99998C37.2653 4.99998 37.5197 4.89463 37.7072 4.70709C37.8947 4.51955 38.0001 4.2652 38.0001 3.99998V3.05998C39.4227 3.24384 40.7697 3.80683 41.9001 4.68998L41.2401 5.33998C41.0955 5.48276 40.9978 5.66621 40.96 5.86591C40.9223 6.0656 40.9463 6.27206 41.0288 6.45777C41.1114 6.64349 41.2485 6.79965 41.4221 6.90545C41.5956 7.01124 41.7972 7.06166 42.0001 7.04998C42.4601 7.04998 42.5901 6.86998 43.3601 6.04998C44.2336 7.19991 44.7796 8.56485 44.9401 9.99998H44.0001C43.7349 9.99998 43.4805 10.1053 43.293 10.2929C43.1055 10.4804 43.0001 10.7348 43.0001 11C43.0001 11.2652 43.1055 11.5196 43.293 11.7071C43.4805 11.8946 43.7349 12 44.0001 12H44.9401C44.7733 13.3092 44.2851 14.5568 43.5191 15.6316C42.7532 16.7064 41.7332 17.575 40.5501 18.16Z" fill="#0E0E0E"/>
</svg>
