<svg width="48" height="48" viewBox="0 0 48 48" fill="none" xmlns="http://www.w3.org/2000/svg">
<path d="M26 36H8C6.34315 36 5 37.3431 5 39V43C5 44.6569 6.34315 46 8 46H26C27.6569 46 29 44.6569 29 43V39C29 37.3431 27.6569 36 26 36Z" fill="#F8F9F9"/>
<path d="M42.9005 41.187L38.2418 23.8004C37.813 22.2 36.168 21.2502 34.5676 21.679L30.7039 22.7143C29.1035 23.1431 28.1537 24.7882 28.5825 26.3886L33.2413 43.7752C33.6701 45.3756 35.3151 46.3254 36.9155 45.8965L40.7792 44.8613C42.3796 44.4324 43.3294 42.7874 42.9005 41.187Z" fill="#CED4DA"/>
<path d="M8 36H26C27.6569 36 29 34.6569 29 33V29C29 27.3431 27.6569 26 26 26H8C6.34315 26 5 27.3431 5 29V33C5 34.6569 6.34315 36 8 36Z" fill="#F8F9F9"/>
<path d="M9.00005 39.0001C8.81538 38.9995 8.63447 38.9479 8.47738 38.8508C8.32029 38.7537 8.19314 38.615 8.11005 38.4501L7.11005 36.4501C7.01298 36.217 7.00769 35.9558 7.09522 35.719C7.18276 35.4821 7.35665 35.2872 7.58198 35.1733C7.80731 35.0593 8.0674 35.0349 8.31003 35.1048C8.55266 35.1747 8.75986 35.3337 8.89005 35.5501L9.89005 37.5501C9.96676 37.7023 10.0033 37.8716 9.99614 38.042C9.98901 38.2123 9.93845 38.3779 9.84928 38.5232C9.76011 38.6685 9.63528 38.7886 9.48665 38.872C9.33801 38.9555 9.17051 38.9996 9.00005 39.0001Z" fill="#CED4DA"/>
<path d="M13 39.0002C12.8153 38.9996 12.6344 38.9479 12.4773 38.8508C12.3202 38.7537 12.1931 38.6151 12.11 38.4502L11.11 36.4502C11.0391 36.3323 10.9932 36.2011 10.9753 36.0648C10.9574 35.9285 10.9678 35.7899 11.0059 35.6577C11.0439 35.5256 11.1089 35.4027 11.1966 35.2968C11.2843 35.1909 11.3929 35.1042 11.5156 35.0422C11.6383 34.9801 11.7725 34.944 11.9098 34.9362C12.0471 34.9284 12.1845 34.9489 12.3135 34.9966C12.4425 35.0443 12.5602 35.118 12.6594 35.2133C12.7586 35.3085 12.8371 35.4232 12.89 35.5501L13.89 37.5501C13.9667 37.7024 14.0032 37.8717 13.9961 38.042C13.9889 38.2123 13.9384 38.378 13.8492 38.5233C13.76 38.6685 13.6352 38.7886 13.4866 38.8721C13.3379 38.9556 13.1704 38.9996 13 39.0002Z" fill="#CED4DA"/>
<path d="M17 39.0002C16.8153 38.9996 16.6344 38.9479 16.4773 38.8508C16.3202 38.7537 16.1931 38.6151 16.11 38.4502L15.11 36.4502C15.0391 36.3323 14.9932 36.2011 14.9753 36.0648C14.9574 35.9285 14.9678 35.7899 15.0059 35.6577C15.0439 35.5256 15.1089 35.4027 15.1966 35.2968C15.2843 35.1909 15.3929 35.1042 15.5156 35.0422C15.6383 34.9801 15.7725 34.944 15.9098 34.9362C16.0471 34.9284 16.1845 34.9489 16.3135 34.9966C16.4425 35.0443 16.5602 35.118 16.6594 35.2133C16.7586 35.3085 16.8371 35.4232 16.89 35.5501L17.89 37.5501C17.9667 37.7024 18.0032 37.8717 17.9961 38.042C17.9889 38.2123 17.9384 38.378 17.8492 38.5233C17.76 38.6685 17.6352 38.7886 17.4866 38.8721C17.3379 38.9556 17.1704 38.9996 17 39.0002Z" fill="#CED4DA"/>
<path d="M21 39.0002C20.8153 38.9996 20.6344 38.9479 20.4773 38.8508C20.3202 38.7537 20.1931 38.6151 20.11 38.4502L19.11 36.4502C19.0391 36.3323 18.9932 36.2011 18.9753 36.0648C18.9574 35.9285 18.9678 35.7899 19.0059 35.6577C19.0439 35.5256 19.1089 35.4027 19.1966 35.2968C19.2843 35.1909 19.3929 35.1042 19.5156 35.0422C19.6383 34.9801 19.7725 34.944 19.9098 34.9362C20.0471 34.9284 20.1845 34.9489 20.3135 34.9966C20.4425 35.0443 20.5602 35.118 20.6594 35.2133C20.7586 35.3085 20.8371 35.4232 20.89 35.5501L21.89 37.5501C21.9667 37.7024 22.0032 37.8717 21.9961 38.042C21.9889 38.2123 21.9384 38.378 21.8492 38.5233C21.76 38.6685 21.6352 38.7886 21.4866 38.8721C21.3379 38.9556 21.1704 38.9996 21 39.0002Z" fill="#CED4DA"/>
<path d="M25 39.0002C24.8153 38.9996 24.6344 38.9479 24.4773 38.8508C24.3202 38.7537 24.1931 38.6151 24.11 38.4502L23.11 36.4502C23.0391 36.3323 22.9932 36.2011 22.9753 36.0648C22.9574 35.9285 22.9678 35.7899 23.0059 35.6577C23.0439 35.5256 23.1089 35.4027 23.1966 35.2968C23.2843 35.1909 23.3929 35.1042 23.5156 35.0422C23.6383 34.9801 23.7725 34.944 23.9098 34.9362C24.0471 34.9284 24.1845 34.9489 24.3135 34.9966C24.4425 35.0443 24.5602 35.118 24.6594 35.2133C24.7586 35.3085 24.8371 35.4232 24.89 35.5501L25.89 37.5501C25.9667 37.7024 26.0032 37.8717 25.9961 38.042C25.9889 38.2123 25.9384 38.378 25.8492 38.5233C25.76 38.6685 25.6352 38.7886 25.4866 38.8721C25.3379 38.9556 25.1704 38.9996 25 39.0002Z" fill="#CED4DA"/>
<path d="M7.9999 47.0001C7.82944 46.9996 7.66194 46.9555 7.5133 46.872C7.36467 46.7886 7.23984 46.6685 7.15067 46.5232C7.06149 46.3779 7.01094 46.2123 7.00381 46.042C6.99667 45.8716 7.03319 45.7023 7.1099 45.5501L8.1099 43.5501C8.24008 43.3337 8.44729 43.1747 8.68992 43.1048C8.93255 43.0349 9.19264 43.0593 9.41797 43.1733C9.6433 43.2872 9.81719 43.4821 9.90473 43.719C9.99226 43.9558 9.98697 44.217 9.8899 44.4501L8.8899 46.4501C8.8068 46.615 8.67966 46.7537 8.52257 46.8508C8.36548 46.9479 8.18457 46.9995 7.9999 47.0001Z" fill="#CED4DA"/>
<path d="M11.9999 47.0001C11.8294 46.9996 11.6619 46.9555 11.5133 46.872C11.3647 46.7886 11.2398 46.6685 11.1507 46.5232C11.0615 46.3779 11.0109 46.2123 11.0038 46.042C10.9967 45.8716 11.0332 45.7023 11.1099 45.5501L12.1099 43.5501C12.2401 43.3337 12.4473 43.1747 12.6899 43.1048C12.9325 43.0349 13.1926 43.0593 13.418 43.1733C13.6433 43.2872 13.8172 43.4821 13.9047 43.719C13.9923 43.9558 13.987 44.217 13.8899 44.4501L12.8899 46.4501C12.8068 46.615 12.6797 46.7537 12.5226 46.8508C12.3655 46.9479 12.1846 46.9995 11.9999 47.0001Z" fill="#CED4DA"/>
<path d="M15.9999 47.0001C15.8294 46.9996 15.6619 46.9555 15.5133 46.872C15.3647 46.7886 15.2398 46.6685 15.1507 46.5232C15.0615 46.3779 15.0109 46.2123 15.0038 46.042C14.9967 45.8716 15.0332 45.7023 15.1099 45.5501L16.1099 43.5501C16.2401 43.3337 16.4473 43.1747 16.6899 43.1048C16.9325 43.0349 17.1926 43.0593 17.418 43.1733C17.6433 43.2872 17.8172 43.4821 17.9047 43.719C17.9923 43.9558 17.987 44.217 17.8899 44.4501L16.8899 46.4501C16.8068 46.615 16.6797 46.7537 16.5226 46.8508C16.3655 46.9479 16.1846 46.9995 15.9999 47.0001Z" fill="#CED4DA"/>
<path d="M19.9999 47.0001C19.8294 46.9996 19.6619 46.9555 19.5133 46.872C19.3647 46.7886 19.2398 46.6685 19.1507 46.5232C19.0615 46.3779 19.0109 46.2123 19.0038 46.042C18.9967 45.8716 19.0332 45.7023 19.1099 45.5501L20.1099 43.5501C20.2401 43.3337 20.4473 43.1747 20.6899 43.1048C20.9325 43.0349 21.1926 43.0593 21.418 43.1733C21.6433 43.2872 21.8172 43.4821 21.9047 43.719C21.9923 43.9558 21.987 44.217 21.8899 44.4501L20.8899 46.4501C20.8068 46.615 20.6797 46.7537 20.5226 46.8508C20.3655 46.9479 20.1846 46.9995 19.9999 47.0001Z" fill="#CED4DA"/>
<path d="M23.9999 47.0001C23.8294 46.9996 23.6619 46.9555 23.5133 46.872C23.3647 46.7886 23.2398 46.6685 23.1507 46.5232C23.0615 46.3779 23.0109 46.2123 23.0038 46.042C22.9967 45.8716 23.0332 45.7023 23.1099 45.5501L24.1099 43.5501C24.2401 43.3337 24.4473 43.1747 24.6899 43.1048C24.9325 43.0349 25.1926 43.0593 25.418 43.1733C25.6433 43.2872 25.8172 43.4821 25.9047 43.719C25.9923 43.9558 25.987 44.217 25.8899 44.4501L24.8899 46.4501C24.8068 46.615 24.6797 46.7537 24.5226 46.8508C24.3655 46.9479 24.1846 46.9995 23.9999 47.0001Z" fill="#CED4DA"/>
<path d="M29 42H5C4.73478 42 4.48043 41.8946 4.29289 41.7071C4.10536 41.5196 4 41.2652 4 41C4 40.7348 4.10536 40.4804 4.29289 40.2929C4.48043 40.1054 4.73478 40 5 40H29C29.2652 40 29.5196 40.1054 29.7071 40.2929C29.8946 40.4804 30 40.7348 30 41C30 41.2652 29.8946 41.5196 29.7071 41.7071C29.5196 41.8946 29.2652 42 29 42Z" fill="#CED4DA"/>
<path d="M36.5702 26.2802C36.3685 26.2797 36.1718 26.2182 36.0057 26.1039C35.8396 25.9896 35.712 25.8277 35.6395 25.6396C35.5671 25.4514 35.5532 25.2457 35.5997 25.0496C35.6462 24.8534 35.751 24.6758 35.9002 24.5402L37.5702 23.0502C37.6686 22.9629 37.7834 22.8958 37.9078 22.8528C38.0322 22.8098 38.1639 22.7918 38.2953 22.7997C38.4267 22.8075 38.5552 22.8412 38.6736 22.8988C38.7919 22.9564 38.8978 23.0367 38.9852 23.1352C39.0725 23.2337 39.1396 23.3484 39.1825 23.4728C39.2255 23.5973 39.2436 23.7289 39.2357 23.8603C39.2278 23.9917 39.1941 24.1203 39.1365 24.2386C39.079 24.357 38.9986 24.4629 38.9002 24.5502C37.1002 26.1402 37.0602 26.2802 36.5702 26.2802Z" fill="#F8F9F9"/>
<path d="M37.6001 30.15C37.3971 30.1497 37.199 30.0877 37.0322 29.9721C36.8653 29.8565 36.7375 29.6929 36.6659 29.5029C36.5943 29.313 36.5821 29.1057 36.6311 28.9087C36.6801 28.7117 36.7879 28.5343 36.9401 28.4L38.6101 26.92C38.8099 26.7597 39.0636 26.6822 39.3188 26.7034C39.5741 26.7246 39.8115 26.843 39.982 27.034C40.1526 27.2251 40.2433 27.4744 40.2355 27.7304C40.2277 27.9864 40.122 28.2297 39.9401 28.41C38.1401 30 38.0901 30.15 37.6001 30.15Z" fill="#F8F9F9"/>
<path d="M38.6398 34.0002C38.4408 33.9938 38.2481 33.9281 38.0866 33.8115C37.9251 33.695 37.8021 33.5328 37.7333 33.3459C37.6646 33.1589 37.6532 32.9557 37.7007 32.7623C37.7482 32.5689 37.8523 32.394 37.9998 32.2602L39.6798 30.7802C39.8776 30.6041 40.1371 30.5137 40.4014 30.5287C40.6657 30.5437 40.9133 30.6629 41.0898 30.8602C41.1779 30.9589 41.2455 31.0742 41.2887 31.1993C41.3319 31.3244 41.3498 31.4569 41.3415 31.589C41.3331 31.721 41.2986 31.8502 41.24 31.9688C41.1813 32.0875 41.0997 32.1933 40.9998 32.2802C39.1698 33.8702 39.1298 34.0002 38.6398 34.0002Z" fill="#F8F9F9"/>
<path d="M39.6702 37.8801C39.4664 37.8818 39.2669 37.8212 39.0984 37.7064C38.93 37.5916 38.8006 37.428 38.7277 37.2376C38.6548 37.0473 38.6419 36.8391 38.6906 36.6412C38.7393 36.4432 38.8473 36.2649 39.0002 36.1301L40.6702 34.6401C40.7687 34.5527 40.8834 34.4857 41.0079 34.4427C41.1323 34.3997 41.2639 34.3816 41.3953 34.3895C41.5267 34.3974 41.6553 34.4311 41.7737 34.4887C41.892 34.5462 41.9979 34.6266 42.0852 34.7251C42.1726 34.8235 42.2396 34.9383 42.2826 35.0627C42.3256 35.1871 42.3437 35.3188 42.3358 35.4502C42.3279 35.5816 42.2942 35.7101 42.2366 35.8285C42.179 35.9469 42.0987 36.0527 42.0002 36.1401C40.2102 37.7401 40.1602 37.8801 39.6702 37.8801Z" fill="#F8F9F9"/>
<path d="M40.7101 41.7401C40.505 41.7479 40.3025 41.6925 40.1301 41.5813C39.9576 41.4702 39.8235 41.3086 39.746 41.1186C39.6685 40.9286 39.6513 40.7194 39.6967 40.5193C39.7422 40.3192 39.8481 40.1379 40.0001 40.0001L41.6801 38.5201C41.7731 38.4124 41.888 38.3259 42.0171 38.2662C42.1462 38.2065 42.2866 38.175 42.4289 38.1739C42.5712 38.1727 42.712 38.202 42.8421 38.2596C42.9721 38.3173 43.0884 38.402 43.1831 38.5082C43.2778 38.6144 43.3487 38.7395 43.3912 38.8753C43.4337 39.0111 43.4467 39.1544 43.4294 39.2956C43.412 39.4368 43.3648 39.5727 43.2908 39.6942C43.2167 39.8157 43.1176 39.92 43.0001 40.0001C41.2401 41.6001 41.2001 41.7401 40.7101 41.7401Z" fill="#F8F9F9"/>
<path d="M30.7699 27.8401C30.6299 27.8401 30.7699 27.8402 28.3799 27.3702C28.1146 27.3171 27.8814 27.1609 27.7313 26.9358C27.5813 26.7108 27.5268 26.4354 27.5799 26.1701C27.6329 25.9049 27.7891 25.6716 28.0142 25.5216C28.2392 25.3716 28.5147 25.3171 28.7799 25.3702L30.9699 25.8201C31.1012 25.8333 31.2286 25.8722 31.3449 25.9345C31.4612 25.9969 31.5641 26.0816 31.6477 26.1838C31.7313 26.2859 31.7939 26.4035 31.832 26.5299C31.8701 26.6562 31.883 26.7888 31.8699 26.9201C31.8567 27.0515 31.8179 27.1789 31.7555 27.2952C31.6931 27.4115 31.6084 27.5144 31.5063 27.598C31.4041 27.6815 31.2865 27.7442 31.1602 27.7823C31.0338 27.8204 30.9012 27.8333 30.7699 27.8201V27.8401Z" fill="#F8F9F9"/>
<path d="M31.8101 31.7C31.0008 31.5952 30.1992 31.4382 29.4101 31.23C29.2788 31.2037 29.154 31.1519 29.0427 31.0774C28.9314 31.0028 28.8359 30.9071 28.7616 30.7957C28.6873 30.6843 28.6357 30.5593 28.6097 30.4279C28.5837 30.2965 28.5839 30.1613 28.6101 30.03C28.6364 29.8987 28.6883 29.7738 28.7628 29.6625C28.8373 29.5513 28.933 29.4558 29.0445 29.3815C29.1559 29.3072 29.2809 29.2556 29.4122 29.2296C29.5436 29.2036 29.6788 29.2037 29.8101 29.23L32.0101 29.68C32.2754 29.7065 32.5192 29.8373 32.688 30.0436C32.8567 30.2499 32.9367 30.5148 32.9101 30.78C32.8836 31.0452 32.7528 31.289 32.5465 31.4578C32.3402 31.6266 32.0754 31.7065 31.8101 31.68V31.7Z" fill="#F8F9F9"/>
<path d="M32.8401 35.5601C32.0349 35.4553 31.2368 35.3017 30.4501 35.1001C30.3214 35.0739 30.1992 35.0225 30.0903 34.949C29.9814 34.8755 29.8881 34.7813 29.8157 34.6717C29.7432 34.5621 29.6931 34.4393 29.6681 34.3104C29.6432 34.1814 29.6438 34.0488 29.6701 33.9201C29.6964 33.7914 29.7477 33.6691 29.8212 33.5603C29.8947 33.4514 29.989 33.3581 30.0985 33.2857C30.2081 33.2132 30.3309 33.1631 30.4599 33.1381C30.5888 33.1131 30.7214 33.1138 30.8501 33.1401L33.0401 33.5901C33.3054 33.6166 33.5492 33.7474 33.718 33.9537C33.8867 34.16 33.9667 34.4249 33.9401 34.6901C33.9136 34.9553 33.7828 35.1991 33.5765 35.3679C33.3702 35.5367 33.1054 35.6166 32.8401 35.5901V35.5601Z" fill="#F8F9F9"/>
<path d="M33.8799 39.43C33.0721 39.3157 32.271 39.1589 31.4799 38.96C31.2146 38.9056 30.9819 38.7481 30.8328 38.5222C30.6837 38.2962 30.6305 38.0202 30.6849 37.755C30.7392 37.4898 30.8967 37.257 31.1227 37.1079C31.3487 36.9589 31.6246 36.9056 31.8899 36.96L34.0799 37.41C34.3451 37.4365 34.5889 37.5673 34.7577 37.7736C34.9265 37.9799 35.0064 38.2448 34.9799 38.51C34.9533 38.7752 34.8226 39.019 34.6163 39.1878C34.41 39.3566 34.1451 39.4365 33.8799 39.41V39.43Z" fill="#F8F9F9"/>
<path d="M34.91 43.2901C34.1045 43.1825 33.3063 43.0256 32.52 42.8201C32.2548 42.7671 32.0215 42.6108 31.8715 42.3858C31.7214 42.1607 31.667 41.8853 31.72 41.6201C31.773 41.3549 31.9293 41.1216 32.1543 40.9716C32.3794 40.8215 32.6548 40.7671 32.92 40.8201L35.11 41.2701C35.3752 41.2966 35.619 41.4274 35.7878 41.6337C35.9566 41.84 36.0365 42.1049 36.01 42.3701C35.9835 42.6353 35.8527 42.8791 35.6464 43.0479C35.4401 43.2167 35.1752 43.2966 34.91 43.2701V43.2901Z" fill="#F8F9F9"/>
<path d="M38.8397 46.38C38.6139 46.3878 38.3922 46.3188 38.2106 46.1845C38.029 46.0501 37.8983 45.8582 37.8397 45.64L31.6697 22.46C31.6348 22.3333 31.6252 22.2009 31.6415 22.0705C31.6578 21.9401 31.6997 21.8141 31.7647 21.6999C31.8297 21.5857 31.9166 21.4854 32.0204 21.4047C32.1242 21.3241 32.2429 21.2647 32.3697 21.23C32.4971 21.1953 32.6301 21.1861 32.761 21.2031C32.892 21.22 33.0183 21.2627 33.1326 21.3288C33.247 21.3948 33.3471 21.4828 33.4273 21.5877C33.5074 21.6926 33.566 21.8124 33.5997 21.94L39.8097 45.12C39.8497 45.2686 39.8549 45.4244 39.8248 45.5753C39.7948 45.7262 39.7303 45.8681 39.6365 45.9901C39.5426 46.112 39.4219 46.2106 39.2837 46.2782C39.1455 46.3459 38.9935 46.3807 38.8397 46.38Z" fill="#F8F9F9"/>
<path d="M24.9999 29.0001C24.8294 28.9996 24.6619 28.9555 24.5133 28.872C24.3647 28.7886 24.2398 28.6685 24.1507 28.5232C24.0615 28.3779 24.0109 28.2123 24.0038 28.042C23.9967 27.8716 24.0332 27.7023 24.1099 27.5501L25.1099 25.5501C25.2401 25.3337 25.4473 25.1747 25.6899 25.1048C25.9325 25.0349 26.1926 25.0593 26.418 25.1733C26.6433 25.2872 26.8172 25.4821 26.9047 25.719C26.9923 25.9558 26.987 26.217 26.8899 26.4501L25.8899 28.4501C25.8068 28.615 25.6797 28.7537 25.5226 28.8508C25.3655 28.9479 25.1846 28.9995 24.9999 29.0001Z" fill="#CED4DA"/>
<path d="M20.9999 29.0001C20.8294 28.9996 20.6619 28.9555 20.5133 28.872C20.3647 28.7886 20.2398 28.6685 20.1507 28.5232C20.0615 28.3779 20.0109 28.2123 20.0038 28.042C19.9967 27.8716 20.0332 27.7023 20.1099 27.5501L21.1099 25.5501C21.2401 25.3337 21.4473 25.1747 21.6899 25.1048C21.9325 25.0349 22.1926 25.0593 22.418 25.1733C22.6433 25.2872 22.8172 25.4821 22.9047 25.719C22.9923 25.9558 22.987 26.217 22.8899 26.4501L21.8899 28.4501C21.8068 28.615 21.6797 28.7537 21.5226 28.8508C21.3655 28.9479 21.1846 28.9995 20.9999 29.0001Z" fill="#CED4DA"/>
<path d="M16.9999 29.0001C16.8294 28.9996 16.6619 28.9555 16.5133 28.8721C16.3647 28.7886 16.2398 28.6685 16.1507 28.5233C16.0615 28.378 16.0109 28.2123 16.0038 28.042C15.9967 27.8717 16.0332 27.7024 16.1099 27.5501L17.1099 25.5501C17.1628 25.4232 17.2412 25.3085 17.3404 25.2133C17.4396 25.118 17.5574 25.0443 17.6864 24.9966C17.8154 24.9489 17.9528 24.9284 18.0901 24.9362C18.2274 24.944 18.3616 24.9801 18.4843 25.0422C18.607 25.1042 18.7156 25.1909 18.8033 25.2968C18.891 25.4027 18.9559 25.5256 18.994 25.6577C19.032 25.7899 19.0425 25.9285 19.0245 26.0648C19.0066 26.2011 18.9608 26.3323 18.8899 26.4501L17.8899 28.4501C17.8068 28.6151 17.6797 28.7537 17.5226 28.8508C17.3655 28.9479 17.1846 28.9996 16.9999 29.0001Z" fill="#CED4DA"/>
<path d="M12.9999 29.0001C12.8294 28.9996 12.6619 28.9555 12.5133 28.8721C12.3647 28.7886 12.2398 28.6685 12.1507 28.5233C12.0615 28.378 12.0109 28.2123 12.0038 28.042C11.9967 27.8717 12.0332 27.7024 12.1099 27.5501L13.1099 25.5501C13.1628 25.4232 13.2412 25.3085 13.3404 25.2133C13.4396 25.118 13.5574 25.0443 13.6864 24.9966C13.8154 24.9489 13.9528 24.9284 14.0901 24.9362C14.2274 24.944 14.3616 24.9801 14.4843 25.0422C14.607 25.1042 14.7156 25.1909 14.8033 25.2968C14.891 25.4027 14.9559 25.5256 14.994 25.6577C15.032 25.7899 15.0425 25.9285 15.0245 26.0648C15.0066 26.2011 14.9608 26.3323 14.8899 26.4501L13.8899 28.4501C13.8068 28.6151 13.6797 28.7537 13.5226 28.8508C13.3655 28.9479 13.1846 28.9996 12.9999 29.0001Z" fill="#CED4DA"/>
<path d="M8.9999 29.0001C8.82944 28.9996 8.66194 28.9555 8.5133 28.8721C8.36467 28.7886 8.23984 28.6685 8.15067 28.5233C8.06149 28.378 8.01094 28.2123 8.00381 28.042C7.99667 27.8717 8.03319 27.7024 8.1099 27.5501L9.1099 25.5501C9.16277 25.4232 9.24124 25.3085 9.34043 25.2133C9.43962 25.118 9.55739 25.0443 9.68637 24.9966C9.81535 24.9489 9.95279 24.9284 10.0901 24.9362C10.2274 24.944 10.3616 24.9801 10.4843 25.0422C10.607 25.1042 10.7156 25.1909 10.8033 25.2968C10.891 25.4027 10.9559 25.5256 10.994 25.6577C11.032 25.7899 11.0425 25.9285 11.0245 26.0648C11.0066 26.2011 10.9608 26.3323 10.8899 26.4501L9.8899 28.4501C9.8068 28.6151 9.67966 28.7537 9.52257 28.8508C9.36548 28.9479 9.18457 28.9996 8.9999 29.0001Z" fill="#CED4DA"/>
<path d="M26 37.0002C25.8153 36.9996 25.6344 36.9479 25.4773 36.8508C25.3202 36.7537 25.1931 36.6151 25.11 36.4502L24.11 34.4502C24.0391 34.3323 23.9932 34.2011 23.9753 34.0648C23.9574 33.9285 23.9678 33.7899 24.0059 33.6577C24.0439 33.5256 24.1089 33.4027 24.1966 33.2968C24.2843 33.1909 24.3929 33.1042 24.5156 33.0422C24.6383 32.9801 24.7725 32.944 24.9098 32.9362C25.0471 32.9284 25.1845 32.9489 25.3135 32.9966C25.4425 33.0443 25.5602 33.118 25.6594 33.2133C25.7586 33.3085 25.8371 33.4232 25.89 33.5501L26.89 35.5501C26.9667 35.7024 27.0032 35.8717 26.9961 36.042C26.9889 36.2123 26.9384 36.378 26.8492 36.5233C26.76 36.6685 26.6352 36.7886 26.4866 36.8721C26.3379 36.9556 26.1704 36.9996 26 37.0002Z" fill="#CED4DA"/>
<path d="M22 37.0002C21.8153 36.9996 21.6344 36.9479 21.4773 36.8508C21.3202 36.7537 21.1931 36.6151 21.11 36.4502L20.11 34.4502C20.0391 34.3323 19.9932 34.2011 19.9753 34.0648C19.9574 33.9285 19.9678 33.7899 20.0059 33.6577C20.0439 33.5256 20.1089 33.4027 20.1966 33.2968C20.2843 33.1909 20.3929 33.1042 20.5156 33.0422C20.6383 32.9801 20.7725 32.944 20.9098 32.9362C21.0471 32.9284 21.1845 32.9489 21.3135 32.9966C21.4425 33.0443 21.5602 33.118 21.6594 33.2133C21.7586 33.3085 21.8371 33.4232 21.89 33.5501L22.89 35.5501C22.9667 35.7024 23.0032 35.8717 22.9961 36.042C22.9889 36.2123 22.9384 36.378 22.8492 36.5233C22.76 36.6685 22.6352 36.7886 22.4866 36.8721C22.3379 36.9556 22.1704 36.9996 22 37.0002Z" fill="#CED4DA"/>
<path d="M18 37.0002C17.8153 36.9996 17.6344 36.9479 17.4773 36.8508C17.3202 36.7537 17.1931 36.6151 17.11 36.4502L16.11 34.4502C16.0391 34.3323 15.9932 34.2011 15.9753 34.0648C15.9574 33.9285 15.9678 33.7899 16.0059 33.6577C16.0439 33.5256 16.1089 33.4027 16.1966 33.2968C16.2843 33.1909 16.3929 33.1042 16.5156 33.0422C16.6383 32.9801 16.7725 32.944 16.9098 32.9362C17.0471 32.9284 17.1845 32.9489 17.3135 32.9966C17.4425 33.0443 17.5602 33.118 17.6594 33.2133C17.7586 33.3085 17.8371 33.4232 17.89 33.5501L18.89 35.5501C18.9667 35.7024 19.0032 35.8717 18.9961 36.042C18.9889 36.2123 18.9384 36.378 18.8492 36.5233C18.76 36.6685 18.6352 36.7886 18.4866 36.8721C18.3379 36.9556 18.1704 36.9996 18 37.0002Z" fill="#CED4DA"/>
<path d="M14 37.0002C13.8153 36.9996 13.6344 36.9479 13.4773 36.8508C13.3202 36.7537 13.1931 36.6151 13.11 36.4502L12.11 34.4502C12.0391 34.3323 11.9932 34.2011 11.9753 34.0648C11.9574 33.9285 11.9678 33.7899 12.0059 33.6577C12.0439 33.5256 12.1089 33.4027 12.1966 33.2968C12.2843 33.1909 12.3929 33.1042 12.5156 33.0422C12.6383 32.9801 12.7725 32.944 12.9098 32.9362C13.0471 32.9284 13.1845 32.9489 13.3135 32.9966C13.4425 33.0443 13.5602 33.118 13.6594 33.2133C13.7586 33.3085 13.8371 33.4232 13.89 33.5501L14.89 35.5501C14.9667 35.7024 15.0032 35.8717 14.9961 36.042C14.9889 36.2123 14.9384 36.378 14.8492 36.5233C14.76 36.6685 14.6352 36.7886 14.4866 36.8721C14.3379 36.9556 14.1704 36.9996 14 37.0002Z" fill="#CED4DA"/>
<path d="M9.99995 37.0002C9.81529 36.9996 9.63438 36.9479 9.47729 36.8508C9.3202 36.7537 9.19305 36.6151 9.10995 36.4502L8.10995 34.4502C8.03906 34.3323 7.99322 34.2011 7.97531 34.0648C7.9574 33.9285 7.96781 33.7899 8.00588 33.6577C8.04394 33.5256 8.10886 33.4027 8.19656 33.2968C8.28426 33.1909 8.39286 33.1042 8.51558 33.0422C8.6383 32.9801 8.77249 32.944 8.90978 32.9362C9.04707 32.9284 9.1845 32.9489 9.31349 32.9966C9.44247 33.0443 9.56024 33.118 9.65943 33.2133C9.75861 33.3085 9.83709 33.4232 9.88995 33.5501L10.89 35.5501C10.9667 35.7024 11.0032 35.8717 10.9961 36.042C10.9889 36.2123 10.9384 36.378 10.8492 36.5233C10.76 36.6685 10.6352 36.7886 10.4866 36.8721C10.3379 36.9556 10.1704 36.9996 9.99995 37.0002Z" fill="#CED4DA"/>
<path d="M29 32H5C4.73478 32 4.48043 31.8946 4.29289 31.7071C4.10536 31.5196 4 31.2652 4 31C4 30.7348 4.10536 30.4804 4.29289 30.2929C4.48043 30.1054 4.73478 30 5 30H29C29.2652 30 29.5196 30.1054 29.7071 30.2929C29.8946 30.4804 30 30.7348 30 31C30 31.2652 29.8946 31.5196 29.7071 31.7071C29.5196 31.8946 29.2652 32 29 32Z" fill="#CED4DA"/>
<path d="M29 14.6101L27.57 13.8901C27.4013 13.8098 27.2586 13.6839 27.1578 13.5266C27.0571 13.3693 27.0024 13.1869 27 13.0001C27.0005 12.8297 27.0446 12.6622 27.1281 12.5135C27.2115 12.3649 27.3316 12.2401 27.4769 12.1509C27.6222 12.0617 27.7878 12.0112 27.9581 12.0041C28.1285 11.9969 28.2978 12.0334 28.45 12.1101L28.88 12.3301C28.9975 13.0841 29.0377 13.848 29 14.6101Z" fill="#F8F9F9"/>
<path d="M18.6199 14.5301L21.8799 19.0001C21.3995 19.4721 20.8539 19.8728 20.2599 20.1901L16.9999 15.7001L13.7399 20.2001C13.1452 19.8798 12.5996 19.4756 12.1199 19.0001L15.3799 14.5201L10.1099 12.8001C10.2142 12.1391 10.4199 11.4982 10.7199 10.9001L15.9999 12.6201V7.08008C16.662 6.97005 17.3377 6.97005 17.9999 7.08008V12.6201L23.2799 10.9101C23.5798 11.5082 23.7855 12.1491 23.8899 12.8101L18.6199 14.5301Z" fill="#E60C0C"/>
<path d="M17 17C18.6569 17 20 15.6569 20 14C20 12.3431 18.6569 11 17 11C15.3431 11 14 12.3431 14 14C14 15.6569 15.3431 17 17 17Z" fill="#E60C0C"/>
<path d="M17 15C17.5523 15 18 14.5523 18 14C18 13.4477 17.5523 13 17 13C16.4477 13 16 13.4477 16 14C16 14.5523 16.4477 15 17 15Z" fill="#CED4DA"/>
<path d="M43.86 40.9301L39.2 23.5401C38.9257 22.5171 38.2568 21.6446 37.3401 21.1141C36.4234 20.5836 35.3337 20.4383 34.31 20.7101L30.44 21.7101C29.6455 21.928 28.9377 22.386 28.4132 23.0214C27.8888 23.6568 27.5734 24.4387 27.51 25.2601C26.61 24.9001 26.23 24.9601 23.9 24.9601C26.2916 23.4624 28.1308 21.2272 29.1401 18.592C30.1493 15.9569 30.2738 13.0649 29.4946 10.3528C28.7155 7.64074 27.075 5.2558 24.821 3.55816C22.567 1.86053 19.8218 0.942383 17 0.942383C14.1782 0.942383 11.4331 1.86053 9.17905 3.55816C6.92503 5.2558 5.28459 7.64074 4.50543 10.3528C3.72628 13.0649 3.85073 15.9569 4.85999 18.592C5.86925 21.2272 7.70852 23.4624 10.1 24.9601H8.00004C6.93917 24.9601 5.92176 25.3815 5.17161 26.1317C4.42147 26.8818 4.00004 27.8992 4.00004 28.9601V32.9601C4.00325 33.5296 4.12802 34.0918 4.36601 34.6091C4.604 35.1265 4.94972 35.5871 5.38004 35.9601C4.94463 36.3375 4.5959 36.8046 4.35771 37.3292C4.11953 37.8539 3.99752 38.4239 4.00004 39.0001V43.0001C4.00004 44.061 4.42147 45.0784 5.17161 45.8285C5.92176 46.5787 6.93917 47.0001 8.00004 47.0001H26C27.0609 47.0001 28.0783 46.5787 28.8285 45.8285C29.5786 45.0784 30 44.061 30 43.0001V39.0001C29.9968 38.4306 29.8721 37.8684 29.6341 37.351C29.3961 36.8337 29.0504 36.3731 28.62 36.0001C29.0997 35.5839 29.4733 35.0594 29.71 34.4701L32.27 44.0001C32.4058 44.5077 32.6403 44.9837 32.9601 45.4006C33.2798 45.8176 33.6786 46.1675 34.1337 46.4303C34.5887 46.6932 35.0911 46.8637 35.6121 46.9323C36.1331 47.0009 36.6625 46.9662 37.17 46.8301L41.03 45.8301C41.5377 45.6943 42.0136 45.4598 42.4306 45.1401C42.8476 44.8203 43.1975 44.4215 43.4603 43.9665C43.7231 43.5114 43.8937 43.009 43.9623 42.488C44.0309 41.9671 43.9961 41.4377 43.86 40.9301ZM6.00004 14.0001C6.00004 11.8245 6.64518 9.69776 7.85387 7.88882C9.06257 6.07988 10.7805 4.66998 12.7905 3.83742C14.8005 3.00486 17.0122 2.78702 19.146 3.21146C21.2798 3.6359 23.2398 4.68354 24.7782 6.22192C26.3166 7.7603 27.3642 9.72031 27.7887 11.8541C28.2131 13.9879 27.9953 16.1996 27.1627 18.2096C26.3301 20.2196 24.9203 21.9376 23.1113 23.1463C21.3024 24.355 19.1756 25.0001 17 25.0001C14.0827 25.0001 11.2848 23.8412 9.22186 21.7783C7.15896 19.7154 6.00004 16.9175 6.00004 14.0001ZM28 39.0001V43.0001C28 43.5305 27.7893 44.0392 27.4143 44.4143C27.0392 44.7894 26.5305 45.0001 26 45.0001H8.00004C7.46961 45.0001 6.9609 44.7894 6.58582 44.4143C6.21075 44.0392 6.00004 43.5305 6.00004 43.0001V39.0001C6.00004 38.4697 6.21075 37.961 6.58582 37.5859C6.9609 37.2108 7.46961 37.0001 8.00004 37.0001H26C26.5305 37.0001 27.0392 37.2108 27.4143 37.5859C27.7893 37.961 28 38.4697 28 39.0001ZM8.00004 35.0001C7.46961 35.0001 6.9609 34.7894 6.58582 34.4143C6.21075 34.0392 6.00004 33.5305 6.00004 33.0001V29.0001C6.00004 28.4697 6.21075 27.961 6.58582 27.5859C6.9609 27.2108 7.46961 27.0001 8.00004 27.0001H26C26.5305 27.0001 27.0392 27.2108 27.4143 27.5859C27.7893 27.961 28 28.4697 28 29.0001V33.0001C28 33.5305 27.7893 34.0392 27.4143 34.4143C27.0392 34.7894 26.5305 35.0001 26 35.0001H8.00004ZM40.52 43.9001L36.65 44.9001C36.1382 45.0377 35.5926 44.9665 35.1333 44.7021C34.6739 44.4377 34.3382 44.0018 34.2 43.4901L29.54 26.1301C29.4727 25.8733 29.4572 25.6057 29.4944 25.3428C29.5316 25.08 29.6207 24.8272 29.7566 24.5991C29.8925 24.3711 30.0724 24.1724 30.2859 24.0146C30.4994 23.8568 30.7422 23.7431 31 23.6801C35.31 22.5301 35 22.5801 35.38 22.5801C35.8197 22.5804 36.247 22.7255 36.5959 22.993C36.9447 23.2605 37.1957 23.6356 37.31 24.0601L41.97 41.4501C42.0375 41.7062 42.0534 41.9732 42.0169 42.2355C41.9803 42.4978 41.8921 42.7503 41.7572 42.9782C41.6223 43.2061 41.4435 43.405 41.2311 43.5632C41.0187 43.7215 40.777 43.836 40.52 43.9001Z" fill="#0E0E0E"/>
<path fill-rule="evenodd" clip-rule="evenodd" d="M16.8993 4.24326L17.5568 2.93726C19.0713 3.01329 20.5429 3.3989 21.8851 4.05824C21.6431 3.94065 21.3961 3.83291 21.1449 3.73533L20.7757 3.97533C20.6643 4.03653 20.5667 4.12009 20.4891 4.22077C20.4115 4.32144 20.3555 4.43706 20.3247 4.56038C20.2938 4.6837 20.2888 4.81206 20.3099 4.93742C20.3309 5.06278 20.3777 5.18243 20.4472 5.28888C20.5166 5.39533 20.6074 5.48628 20.7136 5.55604C20.8199 5.62579 20.9394 5.67285 21.0647 5.69425C21.19 5.71565 21.3184 5.71095 21.4418 5.68042C21.5652 5.6499 21.681 5.59421 21.7819 5.51686L23.0188 4.70456C22.8841 4.61553 22.7474 4.52986 22.6086 4.4476C23.4136 4.92012 24.1622 5.49636 24.8335 6.16767C25.162 6.49618 25.4678 6.8432 25.7497 7.20627H25.3083C25.1497 7.21126 24.995 7.25707 24.8592 7.33928C24.7235 7.42149 24.6112 7.53732 24.5332 7.67558C24.4553 7.81384 24.4143 7.96986 24.4143 8.12858C24.4142 8.28729 24.4551 8.44334 24.5329 8.58166C24.618 8.72956 24.7424 8.85099 24.8923 8.93246C25.0422 9.01394 25.2118 9.05227 25.3822 9.0432L26.8591 8.96012C26.7723 8.78575 26.6807 8.614 26.5842 8.44505C27.34 9.74894 27.8248 11.1987 28.0021 12.7061C27.9912 12.6235 27.9794 12.5409 27.9665 12.4585L27.5696 12.2555C27.4291 12.1846 27.2728 12.1509 27.1156 12.1575C26.9584 12.1641 26.8055 12.2108 26.6714 12.2931C26.5373 12.3754 26.4264 12.4906 26.3494 12.6278C26.2723 12.765 26.2316 12.9196 26.2312 13.077C26.2334 13.2494 26.2838 13.4178 26.3768 13.563C26.4698 13.7082 26.6016 13.8244 26.7573 13.8985L28.0639 14.5564C27.9843 16.1401 27.5657 17.6858 26.8395 19.0896C26.9976 18.7825 27.1395 18.4671 27.2648 18.1447L27.0248 17.7755C26.9636 17.6641 26.88 17.5665 26.7794 17.4889C26.6787 17.4113 26.5631 17.3553 26.4397 17.3244C26.3164 17.2936 26.1881 17.2885 26.0627 17.3096C25.9373 17.3307 25.8177 17.3775 25.7112 17.4469C25.6048 17.5164 25.5138 17.6071 25.4441 17.7134C25.3743 17.8197 25.3273 17.9392 25.3059 18.0645C25.2845 18.1898 25.2892 18.3182 25.3197 18.4416C25.3502 18.565 25.4059 18.6807 25.4833 18.7816L26.2956 20.0185C26.4225 19.8265 26.5426 19.6303 26.6557 19.4301C26.5172 19.6765 26.3689 19.9181 26.2111 20.1542C24.9939 21.9758 23.264 23.3956 21.2399 24.234C20.3044 24.6215 19.3255 24.8767 18.3309 24.997C18.4015 24.9875 18.472 24.9773 18.5423 24.9663L18.7454 24.5694C18.8162 24.4289 18.8499 24.2726 18.8433 24.1154C18.8368 23.9582 18.7901 23.8052 18.7078 23.6711C18.6255 23.537 18.5102 23.4262 18.373 23.3491C18.2358 23.2721 18.0812 23.2314 17.9239 23.2309C17.7515 23.2331 17.5831 23.2836 17.4379 23.3766C17.2927 23.4696 17.1765 23.6014 17.1023 23.7571L16.4447 25.0632C15.9078 25.0362 15.3715 24.97 14.84 24.8643C13.8677 24.6709 12.9313 24.3491 12.0539 23.9111C12.3159 24.0406 12.5837 24.1586 12.8565 24.2646L13.2257 24.0246C13.3371 23.9634 13.4347 23.8798 13.5123 23.7791C13.5899 23.6784 13.6459 23.5628 13.6767 23.4395C13.7076 23.3162 13.7126 23.1878 13.6915 23.0625C13.6705 22.9371 13.6237 22.8175 13.5542 22.711C13.4848 22.6046 13.394 22.5136 13.2878 22.4438C13.1815 22.3741 13.062 22.327 12.9367 22.3056C12.8114 22.2842 12.683 22.2889 12.5596 22.3195C12.4362 22.35 12.3204 22.4057 12.2196 22.483L10.9826 23.2953C11.1319 23.394 11.2836 23.4885 11.4378 23.5788C10.6134 23.1 9.8498 22.5142 9.1684 21.8328C8.84038 21.5048 8.53452 21.1577 8.25208 20.794H8.69356C8.85219 20.789 9.00687 20.7432 9.14264 20.661C9.2784 20.5788 9.39068 20.463 9.46863 20.3247C9.54657 20.1864 9.58755 20.0304 9.58761 19.8717C9.58766 19.713 9.54679 19.5569 9.46894 19.4186C9.38387 19.2707 9.25947 19.1493 9.10956 19.0678C8.95965 18.9863 8.79009 18.948 8.61971 18.9571L7.14279 19.0402C7.23 19.2155 7.32219 19.3881 7.41923 19.558C6.8111 18.5095 6.37588 17.3627 6.13688 16.1612C6.08508 15.9008 6.04277 15.6392 6.00992 15.3769C6.01759 15.432 6.0257 15.4869 6.03426 15.5418L6.43118 15.7449C6.5717 15.8157 6.72799 15.8494 6.88521 15.8429C7.04242 15.8363 7.19534 15.7896 7.32945 15.7073C7.46355 15.625 7.57439 15.5098 7.65143 15.3726C7.72848 15.2354 7.76917 15.0807 7.76965 14.9234C7.76743 14.751 7.71696 14.5826 7.62397 14.4374C7.53097 14.2922 7.39917 14.176 7.24349 14.1018L5.93799 13.4445C6.00126 12.185 6.27949 10.9388 6.76722 9.76128C6.84884 9.56425 6.93596 9.37 7.02843 9.17874C6.92266 9.40048 6.82513 9.62622 6.73605 9.85551L6.97605 10.2247C7.03726 10.3362 7.12081 10.4337 7.22149 10.5113C7.32216 10.5889 7.43778 10.6449 7.5611 10.6758C7.68442 10.7066 7.81278 10.7117 7.93814 10.6906C8.0635 10.6695 8.18315 10.6228 8.2896 10.5533C8.39606 10.4838 8.48701 10.3931 8.55676 10.2868C8.62652 10.1805 8.67357 10.061 8.69497 9.9357C8.71638 9.8104 8.71167 9.68202 8.68114 9.55863C8.65062 9.43523 8.59494 9.31946 8.51759 9.21859L7.70528 7.98166C7.63207 8.0924 7.56113 8.20455 7.49249 8.31805C8.19766 7.13803 9.11773 6.09733 10.2072 5.25131V5.69234C10.2122 5.85098 10.258 6.00566 10.3402 6.14142C10.4225 6.27719 10.5383 6.38947 10.6765 6.46742C10.8148 6.54536 10.9708 6.58634 11.1295 6.5864C11.2883 6.58645 11.4443 6.54558 11.5826 6.46773C11.7305 6.38266 11.852 6.25826 11.9334 6.10835C12.0149 5.95844 12.0532 5.78888 12.0442 5.6185L11.9611 4.14158C11.803 4.2202 11.6471 4.30288 11.4935 4.3895C12.7773 3.65383 14.1938 3.18376 15.6587 3.00493C15.5921 3.01398 15.5257 3.02368 15.4593 3.03403L15.2562 3.43095C15.1854 3.57147 15.1517 3.72776 15.1582 3.88497C15.1648 4.04219 15.2115 4.19511 15.2938 4.32921C15.3761 4.46332 15.4913 4.57415 15.6285 4.6512C15.7657 4.72824 15.9204 4.76893 16.0777 4.76941C16.2501 4.76719 16.4185 4.71673 16.5637 4.62373C16.7089 4.53074 16.8251 4.39894 16.8993 4.24326ZM21.5056 18.6156C20.777 19.3332 19.8885 19.8676 18.9131 20.1749C17.9378 20.4822 16.9034 20.5536 15.895 20.3832C14.8867 20.2129 13.9332 19.8056 13.1129 19.195C12.2926 18.5843 11.629 17.7876 11.1766 16.8705C10.7242 15.9534 10.496 14.942 10.5106 13.9195C10.5252 12.897 10.7824 11.8925 11.2608 10.9887C11.7393 10.0849 12.4255 9.30763 13.2629 8.72069C14.1003 8.13376 15.0651 7.75397 16.0779 7.61254C16.6891 7.51097 17.3128 7.51097 17.924 7.61254C19.1135 7.7884 20.2303 8.29265 21.1488 9.06857C22.0673 9.84449 22.7511 10.8613 23.1232 12.0046C23.4954 13.148 23.5412 14.3725 23.2554 15.5404C22.9696 16.7083 22.3636 17.7733 21.5056 18.6156ZM21.9581 22.3814L22.0411 23.8583C22.663 23.5408 23.2507 23.1603 23.795 22.723V22.2799C23.7855 22.1236 23.7364 21.9723 23.6523 21.8403C23.5683 21.7082 23.452 21.5997 23.3145 21.5249C23.1769 21.4501 23.0226 21.4116 22.8661 21.4128C22.7095 21.4141 22.5559 21.4552 22.4196 21.5322C22.2717 21.6173 22.1503 21.7416 22.0688 21.8916C21.9873 22.0415 21.949 22.211 21.9581 22.3814Z" fill="#CED4DA"/>
</svg>
