<svg width="48" height="48" viewBox="0 0 48 48" fill="none" xmlns="http://www.w3.org/2000/svg">
<path d="M45 33H3C2.60218 33 2.22064 33.158 1.93934 33.4393C1.65804 33.7206 1.5 34.1022 1.5 34.5V41.25H46.5V34.5C46.5 34.1022 46.342 33.7206 46.0607 33.4393C45.7794 33.158 45.3978 33 45 33Z" fill="#E3EAF0"/>
<path d="M1.5 39.9525V37.5H46.5V39.9525H1.5Z" fill="#495057"/>
<path d="M1.5 40.7025C1.30109 40.7025 1.11032 40.6235 0.96967 40.4828C0.829018 40.3422 0.75 40.1514 0.75 39.9525V34.5C0.75 33.9033 0.987053 33.331 1.40901 32.909C1.83097 32.4871 2.40326 32.25 3 32.25H22.5C22.6989 32.25 22.8897 32.329 23.0303 32.4697C23.171 32.6103 23.25 32.8011 23.25 33C23.25 33.1989 23.171 33.3897 23.0303 33.5303C22.8897 33.671 22.6989 33.75 22.5 33.75H3C2.80109 33.75 2.61032 33.829 2.46967 33.9697C2.32902 34.1103 2.25 34.3011 2.25 34.5V39.9525C2.25 40.1514 2.17098 40.3422 2.03033 40.4828C1.88968 40.6235 1.69891 40.7025 1.5 40.7025Z" fill="#0E0E0E"/>
<path d="M46.5 40.7025C46.3011 40.7025 46.1103 40.6235 45.9697 40.4828C45.829 40.3422 45.75 40.1514 45.75 39.9525V34.5C45.75 34.3011 45.671 34.1103 45.5303 33.9697C45.3897 33.829 45.1989 33.75 45 33.75H25.5C25.3011 33.75 25.1103 33.671 24.9697 33.5303C24.829 33.3897 24.75 33.1989 24.75 33C24.75 32.8011 24.829 32.6103 24.9697 32.4697C25.1103 32.329 25.3011 32.25 25.5 32.25H45C45.5967 32.25 46.169 32.4871 46.591 32.909C47.0129 33.331 47.25 33.9033 47.25 34.5V39.9525C47.25 40.1514 47.171 40.3422 47.0303 40.4828C46.8897 40.6235 46.6989 40.7025 46.5 40.7025Z" fill="#0E0E0E"/>
<path d="M24 8.25C26.0711 8.25 27.75 6.57107 27.75 4.5C27.75 2.42893 26.0711 0.75 24 0.75C21.9289 0.75 20.25 2.42893 20.25 4.5C20.25 6.57107 21.9289 8.25 24 8.25Z" fill="#E60C0C"/>
<path d="M43.5 37.5V39.75H4.5V37.5C4.5 37.1022 4.65804 36.7206 4.93934 36.4393C5.22064 36.158 5.60218 36 6 36H6.7875C7.11112 36.0073 7.42843 35.9097 7.69202 35.7218C7.95561 35.5339 8.15135 35.2658 8.25 34.9575C8.5581 33.9176 8.9728 32.9122 9.4875 31.9575C9.63342 31.6752 9.6859 31.3538 9.63737 31.0397C9.58884 30.7257 9.44182 30.4351 9.2175 30.21L8.655 29.6475C8.37562 29.3665 8.21881 28.9863 8.21881 28.59C8.21881 28.1937 8.37562 27.8135 8.655 27.5325L11.8425 24.345C12.1235 24.0656 12.5037 23.9088 12.9 23.9088C13.2963 23.9088 13.6765 24.0656 13.9575 24.345L14.52 24.9075C14.7451 25.1318 15.0357 25.2788 15.3497 25.3274C15.6638 25.3759 15.9852 25.3234 16.2675 25.1775C17.2222 24.6628 18.2276 24.2481 19.2675 23.94C19.5548 23.8344 19.8029 23.6434 19.9785 23.3927C20.1542 23.142 20.2489 22.8436 20.25 22.5375V21.75C20.25 21.3522 20.408 20.9706 20.6893 20.6893C20.9706 20.408 21.3522 20.25 21.75 20.25H26.25C26.6478 20.25 27.0294 20.408 27.3107 20.6893C27.592 20.9706 27.75 21.3522 27.75 21.75V22.5375C27.7427 22.8611 27.8403 23.1784 28.0282 23.442C28.2161 23.7056 28.4842 23.9014 28.7925 24C29.8324 24.3081 30.8378 24.7228 31.7925 25.2375C32.0748 25.3834 32.3962 25.4359 32.7103 25.3874C33.0243 25.3388 33.3149 25.1918 33.54 24.9675L34.1025 24.405C34.3835 24.1256 34.7637 23.9688 35.16 23.9688C35.5563 23.9688 35.9365 24.1256 36.2175 24.405L39.405 27.5925C39.6844 27.8735 39.8412 28.2537 39.8412 28.65C39.8412 29.0463 39.6844 29.4265 39.405 29.7075L38.8425 30.27C38.6182 30.4951 38.4712 30.7857 38.4226 31.0997C38.3741 31.4138 38.4266 31.7352 38.5725 32.0175C39.0872 32.9722 39.5019 33.9776 39.81 35.0175C39.9178 35.3109 40.1145 35.5633 40.3726 35.7394C40.6308 35.9156 40.9375 36.0067 41.25 36H42C42.3978 36 42.7794 36.158 43.0607 36.4393C43.342 36.7206 43.5 37.1022 43.5 37.5Z" fill="#E3EAF0"/>
<path d="M44.25 40.5H3.75V37.5C3.75 36.9033 3.98705 36.331 4.40901 35.909C4.83097 35.4871 5.40326 35.25 6 35.25H6.7875C6.94345 35.2488 7.09516 35.1991 7.22152 35.1077C7.34788 35.0163 7.4426 34.8878 7.4925 34.74C7.82236 33.6614 8.25432 32.6166 8.7825 31.62C8.85458 31.4793 8.88033 31.3194 8.85609 31.1631C8.83184 31.0069 8.75884 30.8623 8.6475 30.75L8.0925 30.195C7.67115 29.7731 7.43448 29.2013 7.43448 28.605C7.43448 28.0087 7.67115 27.4369 8.0925 27.015L11.25 23.8425C11.6719 23.4211 12.2437 23.1845 12.84 23.1845C13.4363 23.1845 14.0081 23.4211 14.43 23.8425L14.9925 24.3975C15.1036 24.5056 15.2455 24.5766 15.3986 24.6008C15.5517 24.625 15.7085 24.6011 15.8475 24.5325C16.8516 24.0056 17.9039 23.5761 18.99 23.25C19.1378 23.2001 19.2663 23.1054 19.3577 22.979C19.4491 22.8527 19.4988 22.701 19.5 22.545V21.75C19.5 21.1533 19.7371 20.581 20.159 20.159C20.581 19.7371 21.1533 19.5 21.75 19.5H26.25C26.8467 19.5 27.419 19.7371 27.841 20.159C28.2629 20.581 28.5 21.1533 28.5 21.75V22.5375C28.5012 22.6934 28.5509 22.8452 28.6423 22.9715C28.7337 23.0979 28.8622 23.1926 29.01 23.2425C30.0886 23.5724 31.1334 24.0043 32.13 24.5325C32.2707 24.6046 32.4306 24.6303 32.5869 24.6061C32.7431 24.5818 32.8877 24.5088 33 24.3975L33.555 23.8425C33.9769 23.4211 34.5487 23.1845 35.145 23.1845C35.7413 23.1845 36.3131 23.4211 36.735 23.8425L39.9075 27C40.3288 27.4219 40.5655 27.9937 40.5655 28.59C40.5655 29.1863 40.3288 29.7581 39.9075 30.18L39.3525 30.7425C39.2444 30.8536 39.1734 30.9955 39.1492 31.1486C39.125 31.3017 39.1489 31.4585 39.2175 31.5975C39.7444 32.6016 40.1739 33.6539 40.5 34.74C40.5522 34.8952 40.6537 35.0291 40.7892 35.1212C40.9246 35.2133 41.0864 35.2585 41.25 35.25H42C42.5967 35.25 43.169 35.4871 43.591 35.909C44.0129 36.331 44.25 36.9033 44.25 37.5V40.5ZM5.25 39H42.75V37.5C42.75 37.3011 42.671 37.1103 42.5303 36.9697C42.3897 36.829 42.1989 36.75 42 36.75H41.25C40.7714 36.7497 40.3054 36.5968 39.9197 36.3136C39.534 36.0304 39.2486 35.6315 39.105 35.175C38.8094 34.1902 38.4149 33.2378 37.9275 32.3325C37.705 31.9085 37.6236 31.4246 37.6951 30.9511C37.7666 30.4777 37.9873 30.0394 38.325 29.7L38.8875 29.145C38.9578 29.0753 39.0136 28.9923 39.0517 28.9009C39.0897 28.8095 39.1093 28.7115 39.1093 28.6125C39.1093 28.5135 39.0897 28.4155 39.0517 28.3241C39.0136 28.2327 38.9578 28.1497 38.8875 28.08L35.67 24.9C35.6003 24.8297 35.5173 24.7739 35.4259 24.7358C35.3345 24.6978 35.2365 24.6782 35.1375 24.6782C35.0385 24.6782 34.9405 24.6978 34.8491 24.7358C34.7577 24.7739 34.6747 24.8297 34.605 24.9L34.05 25.5C33.7106 25.8377 33.2723 26.0584 32.7989 26.1299C32.3254 26.2014 31.8415 26.12 31.4175 25.8975C30.5122 25.4101 29.5598 25.0156 28.575 24.72C28.1123 24.5746 27.709 24.2835 27.4252 23.8902C27.1414 23.4969 26.9922 23.0224 27 22.5375V21.75C27 21.5511 26.921 21.3603 26.7803 21.2197C26.6397 21.079 26.4489 21 26.25 21H21.75C21.5511 21 21.3603 21.079 21.2197 21.2197C21.079 21.3603 21 21.5511 21 21.75V22.5375C20.9997 23.0161 20.8468 23.4821 20.5636 23.8678C20.2804 24.2535 19.8815 24.5389 19.425 24.6825C18.4402 24.9781 17.4878 25.3726 16.5825 25.86C16.1623 26.0872 15.6807 26.1748 15.2074 26.1101C14.7342 26.0453 14.2938 25.8317 13.95 25.5L13.395 24.9375C13.3253 24.8672 13.2423 24.8114 13.1509 24.7733C13.0595 24.7353 12.9615 24.7157 12.8625 24.7157C12.7635 24.7157 12.6655 24.7353 12.5741 24.7733C12.4827 24.8114 12.3997 24.8672 12.33 24.9375L9.15 28.08C9.0797 28.1497 9.02391 28.2327 8.98583 28.3241C8.94775 28.4155 8.92815 28.5135 8.92815 28.6125C8.92815 28.7115 8.94775 28.8095 8.98583 28.9009C9.02391 28.9923 9.0797 29.0753 9.15 29.145L9.705 29.7C10.044 30.0385 10.266 30.4764 10.3389 30.9499C10.4117 31.4234 10.3315 31.9077 10.11 32.3325C9.62072 33.237 9.22613 34.1895 8.9325 35.175C8.78893 35.6315 8.50355 36.0304 8.1178 36.3136C7.73206 36.5968 7.26606 36.7497 6.7875 36.75H6C5.80109 36.75 5.61032 36.829 5.46967 36.9697C5.32902 37.1103 5.25 37.3011 5.25 37.5V39Z" fill="#0E0E0E"/>
<path d="M33.75 39.75H14.25C14.25 37.1641 15.2772 34.6842 17.1057 32.8557C18.9342 31.0272 21.4141 30 24 30C26.5859 30 29.0658 31.0272 30.8943 32.8557C32.7228 34.6842 33.75 37.1641 33.75 39.75Z" fill="#E60C0C"/>
<path d="M14.52 37.5C14.3422 38.2368 14.2516 38.992 14.25 39.75H33.75C33.7484 38.992 33.6578 38.2368 33.48 37.5H14.52Z" fill="#E60C0C"/>
<path d="M34.5 40.5H13.5V39.75C13.5 36.9652 14.6062 34.2945 16.5754 32.3254C18.5445 30.3562 21.2152 29.25 24 29.25C26.7848 29.25 29.4555 30.3562 31.4246 32.3254C33.3938 34.2945 34.5 36.9652 34.5 39.75V40.5ZM15 39H33C33 36.6131 32.0518 34.3239 30.364 32.636C28.6761 30.9482 26.3869 30 24 30C21.6131 30 19.3239 30.9482 17.636 32.636C15.9482 34.3239 15 36.6131 15 39Z" fill="#0E0E0E"/>
<path d="M45.75 39.75H2.25C1.42157 39.75 0.75 40.4216 0.75 41.25V42.75C0.75 43.5784 1.42157 44.25 2.25 44.25H45.75C46.5784 44.25 47.25 43.5784 47.25 42.75V41.25C47.25 40.4216 46.5784 39.75 45.75 39.75Z" fill="#E3EAF0"/>
<path d="M45.7501 42H2.2501C1.91839 41.9989 1.59639 41.8879 1.33448 41.6844C1.07258 41.4808 0.885526 41.1962 0.8026 40.875C0.709153 41.4956 0.691523 42.1252 0.7501 42.75C0.7501 43.1478 0.908135 43.5294 1.18944 43.8107C1.47074 44.092 1.85228 44.25 2.2501 44.25H45.7501C46.1479 44.25 46.5295 44.092 46.8108 43.8107C47.0921 43.5294 47.2501 43.1478 47.2501 42.75C47.3097 42.1252 47.2921 41.4955 47.1976 40.875C47.1147 41.1962 46.9276 41.4808 46.6657 41.6844C46.4038 41.8879 46.0818 41.9989 45.7501 42Z" fill="#E3EAF0"/>
<path d="M10.5 47.25H6L5.25 44.25H11.25L10.5 47.25Z" fill="#E3EAF0"/>
<path d="M42 47.25H37.5L36.75 44.25H42.75L42 47.25Z" fill="#E3EAF0"/>
<path d="M25.5 9.75H22.5V36.75H25.5V9.75Z" fill="#E3EAF0"/>
<path d="M29.25 39.75H18.75C18.75 38.3576 19.3031 37.0223 20.2877 36.0377C21.2723 35.0531 22.6076 34.5 24 34.5C25.3924 34.5 26.7277 35.0531 27.7123 36.0377C28.6969 37.0223 29.25 38.3576 29.25 39.75Z" fill="#E3EAF0"/>
<path d="M19.26 37.5C18.9253 38.2029 18.7511 38.9715 18.75 39.75H29.25C29.2489 38.9715 29.0747 38.2029 28.74 37.5H19.26Z" fill="#495057"/>
<path d="M28.5 6.75H19.5V9.75H28.5V6.75Z" fill="#E3EAF0"/>
<path d="M27 15.75H25.5V12.75H27C27.3978 12.75 27.7794 12.908 28.0607 13.1893C28.342 13.4706 28.5 13.8522 28.5 14.25C28.5 14.6478 28.342 15.0294 28.0607 15.3107C27.7794 15.592 27.3978 15.75 27 15.75Z" fill="#E60C0C"/>
<path d="M18 43.5H16.5C16.3011 43.5 16.1103 43.579 15.9697 43.7197C15.829 43.8603 15.75 44.0511 15.75 44.25C15.75 44.4489 15.829 44.6397 15.9697 44.7803C16.1103 44.921 16.3011 45 16.5 45H18C18.1989 45 18.3897 44.921 18.5303 44.7803C18.671 44.6397 18.75 44.4489 18.75 44.25C18.75 44.0511 18.671 43.8603 18.5303 43.7197C18.3897 43.579 18.1989 43.5 18 43.5Z" fill="#0E0E0E"/>
<path d="M45.75 39.0001H29.9475C29.8138 37.9425 29.4008 36.9397 28.7509 36.0947C28.101 35.2498 27.2378 34.5932 26.25 34.1926V16.5001H27C27.5967 16.5001 28.169 16.263 28.591 15.841C29.0129 15.4191 29.25 14.8468 29.25 14.2501C29.25 13.6533 29.0129 13.081 28.591 12.6591C28.169 12.2371 27.5967 12.0001 27 12.0001H26.25V10.5001H28.5C28.6989 10.5001 28.8897 10.421 29.0303 10.2804C29.171 10.1397 29.25 9.94897 29.25 9.75006V6.75006C29.25 6.55115 29.171 6.36038 29.0303 6.21973C28.8897 6.07908 28.6989 6.00006 28.5 6.00006H28.2375C28.4802 5.32092 28.5562 4.59339 28.4589 3.87876C28.3616 3.16414 28.094 2.48336 27.6787 1.89379C27.2633 1.30421 26.7123 0.823116 26.0721 0.491029C25.4319 0.158942 24.7212 -0.0144043 24 -0.0144043C23.2788 -0.0144043 22.5681 0.158942 21.9279 0.491029C21.2877 0.823116 20.7367 1.30421 20.3213 1.89379C19.906 2.48336 19.6384 3.16414 19.5411 3.87876C19.4438 4.59339 19.5198 5.32092 19.7625 6.00006H19.5C19.3011 6.00006 19.1103 6.07908 18.9697 6.21973C18.829 6.36038 18.75 6.55115 18.75 6.75006V9.75006C18.75 9.94897 18.829 10.1397 18.9697 10.2804C19.1103 10.421 19.3011 10.5001 19.5 10.5001H24.75V33.8026C24.2523 33.735 23.7477 33.735 23.25 33.8026V12.7501C23.25 12.5511 23.171 12.3604 23.0303 12.2197C22.8897 12.0791 22.6989 12.0001 22.5 12.0001C22.3011 12.0001 22.1103 12.0791 21.9697 12.2197C21.829 12.3604 21.75 12.5511 21.75 12.7501V34.1926C20.7622 34.5932 19.899 35.2498 19.2491 36.0947C18.5992 36.9397 18.1862 37.9425 18.0525 39.0001H2.25C1.65326 39.0001 1.08097 39.2371 0.65901 39.6591C0.237053 40.081 0 40.6533 0 41.2501L0 42.7501C0 43.3468 0.237053 43.9191 0.65901 44.341C1.08097 44.763 1.65326 45.0001 2.25 45.0001H4.665L5.25 47.4301C5.29106 47.5965 5.38788 47.7438 5.52435 47.8475C5.66081 47.9512 5.82867 48.005 6 48.0001H10.5C10.6713 48.005 10.8392 47.9512 10.9757 47.8475C11.1121 47.7438 11.2089 47.5965 11.25 47.4301L11.835 45.0001H13.5C13.6989 45.0001 13.8897 44.921 14.0303 44.7804C14.171 44.6397 14.25 44.449 14.25 44.2501C14.25 44.0511 14.171 43.8604 14.0303 43.7197C13.8897 43.5791 13.6989 43.5001 13.5 43.5001H2.25C2.05109 43.5001 1.86032 43.421 1.71967 43.2804C1.57902 43.1397 1.5 42.949 1.5 42.7501V41.2501C1.5 41.0511 1.57902 40.8604 1.71967 40.7197C1.86032 40.5791 2.05109 40.5001 2.25 40.5001H45.75C45.9489 40.5001 46.1397 40.5791 46.2803 40.7197C46.421 40.8604 46.5 41.0511 46.5 41.2501V42.7501C46.5 42.949 46.421 43.1397 46.2803 43.2804C46.1397 43.421 45.9489 43.5001 45.75 43.5001H21C20.8011 43.5001 20.6103 43.5791 20.4697 43.7197C20.329 43.8604 20.25 44.0511 20.25 44.2501C20.25 44.449 20.329 44.6397 20.4697 44.7804C20.6103 44.921 20.8011 45.0001 21 45.0001H36.165L36.75 47.4301C36.7911 47.5965 36.8879 47.7438 37.0243 47.8475C37.1608 47.9512 37.3287 48.005 37.5 48.0001H42C42.1713 48.005 42.3392 47.9512 42.4757 47.8475C42.6121 47.7438 42.7089 47.5965 42.75 47.4301L43.335 45.0001H45.75C46.3467 45.0001 46.919 44.763 47.341 44.341C47.7629 43.9191 48 43.3468 48 42.7501V41.2501C48 40.6533 47.7629 40.081 47.341 39.6591C46.919 39.2371 46.3467 39.0001 45.75 39.0001ZM24 1.50006C24.5264 1.5006 25.0433 1.63961 25.4989 1.90313C25.9546 2.16666 26.3328 2.54542 26.5958 3.00139C26.8587 3.45736 26.9971 3.97448 26.9969 4.50083C26.9968 5.02717 26.8582 5.54423 26.595 6.00006H21.405C21.1418 5.54423 21.0032 5.02717 21.0031 4.50083C21.0029 3.97448 21.1413 3.45736 21.4042 3.00139C21.6672 2.54542 22.0454 2.16666 22.5011 1.90313C22.9567 1.63961 23.4736 1.5006 24 1.50006ZM20.25 9.00006V7.50006H27.75V9.00006H20.25ZM27 13.5001C27.1989 13.5001 27.3897 13.5791 27.5303 13.7197C27.671 13.8604 27.75 14.0511 27.75 14.2501C27.75 14.449 27.671 14.6397 27.5303 14.7804C27.3897 14.921 27.1989 15.0001 27 15.0001H26.25V13.5001H27ZM10.29 45.0001L9.915 46.5001H6.585L6.21 45.0001H10.29ZM19.56 39.0001C19.7336 37.9478 20.2753 36.9913 21.0885 36.3013C21.9016 35.6112 22.9335 35.2325 24 35.2325C25.0665 35.2325 26.0984 35.6112 26.9115 36.3013C27.7247 36.9913 28.2664 37.9478 28.44 39.0001H19.56ZM41.415 46.5001H38.085L37.71 45.0001H41.79L41.415 46.5001Z" fill="#0E0E0E"/>
<path d="M16.3426 4.63512C14.6844 5.77868 13.303 7.27883 12.2998 9.02561C11.2967 10.7724 10.6971 12.7215 10.5451 14.7301L10.2826 14.4676C10.1414 14.3264 9.94987 14.2471 9.75014 14.2471C9.55041 14.2471 9.35887 14.3264 9.21764 14.4676C9.07641 14.6089 8.99707 14.8004 8.99707 15.0001C8.99707 15.1999 9.07641 15.3914 9.21764 15.5326C10.8526 17.1676 10.8451 17.2501 11.2501 17.2501C11.6551 17.2501 11.6701 17.1376 13.2826 15.5326C13.4239 15.3914 13.5032 15.1999 13.5032 15.0001C13.5032 14.8004 13.4239 14.6089 13.2826 14.4676C13.1414 14.3264 12.9499 14.2471 12.7501 14.2471C12.5504 14.2471 12.3589 14.3264 12.2176 14.4676L12.0601 14.6326C12.222 12.885 12.7653 11.1941 13.6517 9.67929C14.538 8.16443 15.7459 6.86245 17.1901 5.86512C17.2811 5.81407 17.3603 5.74461 17.4229 5.66119C17.4855 5.57776 17.53 5.48221 17.5535 5.38063C17.5771 5.27905 17.5792 5.17367 17.5597 5.07122C17.5403 4.96878 17.4997 4.87151 17.4405 4.78565C17.3813 4.69978 17.3049 4.62719 17.2161 4.57252C17.1273 4.51785 17.0281 4.4823 16.9248 4.46813C16.8215 4.45397 16.7163 4.4615 16.6161 4.49026C16.5159 4.51901 16.4227 4.56835 16.3426 4.63512Z" fill="#E3EAF0"/>
<path d="M38.7826 14.4676C38.7128 14.3973 38.6299 14.3415 38.5385 14.3034C38.4471 14.2653 38.3491 14.2457 38.2501 14.2457C38.1511 14.2457 38.053 14.2653 37.9616 14.3034C37.8702 14.3415 37.7873 14.3973 37.7176 14.4676L37.4551 14.7301C37.3031 12.7215 36.7035 10.7723 35.7003 9.02554C34.6972 7.27876 33.3158 5.77861 31.6576 4.63506C31.4944 4.52195 31.293 4.47816 31.0976 4.51331C30.9021 4.54846 30.7286 4.65967 30.6151 4.82256C30.5027 4.98667 30.4601 5.18869 30.4967 5.38419C30.5332 5.57969 30.646 5.75266 30.8101 5.86506C32.2543 6.86238 33.4622 8.16436 34.3485 9.67922C35.2349 11.1941 35.7782 12.8849 35.9401 14.6326L35.7826 14.4676C35.6413 14.3263 35.4498 14.247 35.2501 14.247C35.0503 14.247 34.8588 14.3263 34.7176 14.4676C34.5763 14.6088 34.497 14.8003 34.497 15.0001C34.497 15.1998 34.5763 15.3913 34.7176 15.5326L36.2176 17.0326C36.2873 17.1029 36.3702 17.1587 36.4616 17.1967C36.553 17.2348 36.6511 17.2544 36.7501 17.2544C36.8491 17.2544 36.9471 17.2348 37.0385 17.1967C37.1299 17.1587 37.2128 17.1029 37.2826 17.0326L38.7826 15.5326C38.8529 15.4628 38.9087 15.3799 38.9467 15.2885C38.9848 15.1971 39.0044 15.0991 39.0044 15.0001C39.0044 14.901 38.9848 14.803 38.9467 14.7116C38.9087 14.6202 38.8529 14.5373 38.7826 14.4676Z" fill="#E3EAF0"/>
<path d="M45.75 30C45.6017 30 45.4567 29.956 45.3333 29.8736C45.21 29.7912 45.1139 29.6741 45.0571 29.537C45.0003 29.4 44.9855 29.2492 45.0144 29.1037C45.0433 28.9582 45.1148 28.8246 45.2197 28.7197C45.3246 28.6148 45.4582 28.5433 45.6037 28.5144C45.7492 28.4855 45.9 28.5003 46.037 28.5571C46.1741 28.6139 46.2912 28.71 46.3736 28.8333C46.456 28.9567 46.5 29.1017 46.5 29.25C46.5 29.4489 46.421 29.6397 46.2803 29.7803C46.1397 29.921 45.9489 30 45.75 30Z" fill="#E3EAF0"/>
<path d="M42.75 30C42.6017 30 42.4567 29.956 42.3333 29.8736C42.21 29.7912 42.1139 29.6741 42.0571 29.537C42.0003 29.4 41.9855 29.2492 42.0144 29.1037C42.0433 28.9582 42.1148 28.8246 42.2197 28.7197C42.3246 28.6148 42.4582 28.5433 42.6037 28.5144C42.7492 28.4855 42.9 28.5003 43.037 28.5571C43.1741 28.6139 43.2912 28.71 43.3736 28.8333C43.456 28.9567 43.5 29.1017 43.5 29.25C43.5 29.4489 43.421 29.6397 43.2803 29.7803C43.1397 29.921 42.9489 30 42.75 30Z" fill="#E3EAF0"/>
<path d="M5.25 30C5.10166 30 4.95666 29.956 4.83332 29.8736C4.70999 29.7912 4.61386 29.6741 4.55709 29.537C4.50032 29.4 4.48547 29.2492 4.51441 29.1037C4.54335 28.9582 4.61478 28.8246 4.71967 28.7197C4.82456 28.6148 4.9582 28.5433 5.10368 28.5144C5.24917 28.4855 5.39997 28.5003 5.53701 28.5571C5.67406 28.6139 5.79119 28.71 5.8736 28.8333C5.95601 28.9567 6 29.1017 6 29.25C6 29.4489 5.92098 29.6397 5.78033 29.7803C5.63968 29.921 5.44891 30 5.25 30Z" fill="#E3EAF0"/>
<path d="M2.25 30C2.10166 30 1.95666 29.956 1.83332 29.8736C1.70999 29.7912 1.61386 29.6741 1.55709 29.537C1.50032 29.4 1.48547 29.2492 1.51441 29.1037C1.54335 28.9582 1.61478 28.8246 1.71967 28.7197C1.82456 28.6148 1.9582 28.5433 2.10368 28.5144C2.24917 28.4855 2.39997 28.5003 2.53701 28.5571C2.67406 28.6139 2.79119 28.71 2.8736 28.8333C2.95601 28.9567 3 29.1017 3 29.25C3 29.4489 2.92098 29.6397 2.78033 29.7803C2.63968 29.921 2.44891 30 2.25 30Z" fill="#E3EAF0"/>
</svg>
