<svg width="48" height="48" viewBox="0 0 48 48" fill="none" xmlns="http://www.w3.org/2000/svg">
<path d="M45.0002 9.82V13.56C45.0005 14.009 44.9 14.4523 44.7062 14.8573C44.5123 15.2623 44.23 15.6186 43.8802 15.9L41.1302 18.1C40.7784 18.3804 40.4942 18.7363 40.2986 19.1413C40.103 19.5464 40.001 19.9902 40.0002 20.44V43C40.0002 43.7956 39.6841 44.5587 39.1215 45.1213C38.5589 45.6839 37.7958 46 37.0002 46C36.2045 46 35.4414 45.6839 34.8788 45.1213C34.3162 44.5587 34.0002 43.7956 34.0002 43V20.44C33.9993 19.9902 33.8973 19.5464 33.7017 19.1413C33.5061 18.7363 33.2219 18.3804 32.8702 18.1L30.1202 15.9C29.7703 15.6186 29.488 15.2623 29.2941 14.8573C29.1003 14.4523 28.9998 14.009 29.0002 13.56C29.0002 9.67 28.9002 9.24 29.3202 8.25L31.4802 3.25C31.6286 2.88289 31.8828 2.56813 32.2103 2.3456C32.5379 2.12307 32.9242 2.00279 33.3202 2H34.0002V10L37.0002 11.36L40.0002 10V2H40.6802C41.0716 1.99949 41.4546 2.11386 41.7817 2.32895C42.1088 2.54403 42.3655 2.85038 42.5202 3.21C44.7402 8.4 45.0002 8.7 45.0002 9.82Z" fill="#E3EAF0"/>
<path d="M44 29H43C43.5304 29 44.0391 29.2107 44.4142 29.5858C44.7893 29.9609 45 30.4696 45 31C45 31.5304 44.7893 32.0391 44.4142 32.4142C44.0391 32.7893 43.5304 33 43 33H42C42.5304 33 43.0391 33.2107 43.4142 33.5858C43.7893 33.9609 44 34.4696 44 35C44 35.5304 43.7893 36.0391 43.4142 36.4142C43.0391 36.7893 42.5304 37 42 37H41C41.5296 37.0022 42.0366 37.2144 42.41 37.59C42.688 37.8697 42.8771 38.2253 42.9536 38.6121C43.0301 38.999 42.9905 39.3998 42.8398 39.7642C42.6891 40.1287 42.4341 40.4404 42.1067 40.6603C41.7794 40.8801 41.3943 40.9983 41 41C27.33 41 28.17 41.06 27.54 40.85C24.61 39.85 25.46 40 22.73 40C22.9062 39.6962 22.9994 39.3513 23 39C23 25.91 23.11 26.64 22.73 26H24.5C24.9657 26 25.4251 25.8916 25.8416 25.6833C26.2582 25.475 26.6205 25.1726 26.9 24.8L28.1 23.2C28.3794 22.8274 28.7418 22.525 29.1583 22.3167C29.5749 22.1084 30.0342 22 30.5 22H34V25H44C44.5304 25 45.0391 25.2107 45.4142 25.5858C45.7893 25.9609 46 26.4696 46 27C46 27.5304 45.7893 28.0391 45.4142 28.4142C45.0391 28.7893 44.5304 29 44 29Z" fill="#F8F9F9"/>
<path d="M23 27C23 40.06 23.11 39.36 22.73 40C22.5546 40.3037 22.3025 40.556 21.9988 40.7315C21.6952 40.9071 21.3507 40.9996 21 41H2V25H21C21.5304 25 22.0391 25.2107 22.4142 25.5858C22.7893 25.9609 23 26.4696 23 27Z" fill="#F8F9F9"/>
<path d="M23 27V39C23 39.5304 22.7893 40.0391 22.4142 40.4142C22.0391 40.7893 21.5304 41 21 41H17V25H21C21.5304 25 22.0391 25.2107 22.4142 25.5858C22.7893 25.9609 23 26.4696 23 27Z" fill="#E3EAF0"/>
<path d="M14 37V40H4V37C4 36.7348 4.10536 36.4804 4.29289 36.2929C4.48043 36.1054 4.73478 36 5 36H13C13.2652 36 13.5196 36.1054 13.7071 36.2929C13.8946 36.4804 14 36.7348 14 37Z" fill="#E60C0C"/>
<path d="M44 24H41V20.44C41.0014 20.1396 41.0704 19.8434 41.202 19.5733C41.3336 19.3032 41.5243 19.0663 41.76 18.88L44.5 16.68C44.9677 16.3055 45.3454 15.8307 45.605 15.2907C45.8646 14.7507 45.9996 14.1592 46 13.56C46 7.74 46.4 9.72 43.44 2.82C43.2088 2.27963 42.824 1.81906 42.3333 1.4955C41.8427 1.17195 41.2677 0.999646 40.68 1H40C39.7348 1 39.4804 1.10536 39.2929 1.29289C39.1054 1.48043 39 1.73478 39 2V9.36L37 10.26L35 9.36V2C35 1.73478 34.8946 1.48043 34.7071 1.29289C34.5196 1.10536 34.2652 1 34 1H33.32C32.7323 0.999646 32.1573 1.17195 31.6667 1.4955C31.176 1.81906 30.7912 2.27963 30.56 2.82C27.56 9.74 28 7.82 28 13.56C28.0004 14.1592 28.1354 14.7507 28.395 15.2907C28.6546 15.8307 29.0323 16.3055 29.5 16.68L32.25 18.88C32.4839 19.0672 32.6727 19.3046 32.8025 19.5747C32.9323 19.8447 32.9998 20.1404 33 20.44V21H30.5C29.879 21 29.2666 21.1446 28.7111 21.4223C28.1557 21.7 27.6726 22.1032 27.3 22.6L26.1 24.2C25.9137 24.4484 25.6721 24.65 25.3944 24.7889C25.1167 24.9277 24.8105 25 24.5 25H23.22C22.9404 24.6874 22.5984 24.4369 22.216 24.2647C21.8336 24.0924 21.4194 24.0023 21 24H2C1.73478 24 1.48043 24.1054 1.29289 24.2929C1.10536 24.4804 1 24.7348 1 25C1 25.2652 1.10536 25.5196 1.29289 25.7071C1.48043 25.8946 1.73478 26 2 26H16V40H2C1.73478 40 1.48043 40.1054 1.29289 40.2929C1.10536 40.4804 1 40.7348 1 41C1 41.2652 1.10536 41.5196 1.29289 41.7071C1.48043 41.8946 1.73478 42 2 42H21C21.4194 41.9977 21.8336 41.9076 22.216 41.7353C22.5984 41.5631 22.9404 41.3126 23.22 41C25.27 41 24.48 40.88 27.22 41.8C28.04 42.07 28.08 42 33 42V43C33 44.0609 33.4214 45.0783 34.1716 45.8284C34.9217 46.5786 35.9391 47 37 47C38.0609 47 39.0783 46.5786 39.8284 45.8284C40.5786 45.0783 41 44.0609 41 43V42C41.5241 42.0008 42.0393 41.8644 42.4942 41.6042C42.9492 41.344 43.328 40.9692 43.593 40.517C43.858 40.0649 44 39.5512 44.0047 39.0271C44.0094 38.503 43.8768 37.9869 43.62 37.53C44.2663 37.1174 44.7301 36.4729 44.916 35.729C45.102 34.9851 44.9961 34.1982 44.62 33.53C45.2663 33.1174 45.7301 32.4729 45.916 31.729C46.102 30.9851 45.9961 30.1982 45.62 29.53C46.168 29.1808 46.5879 28.6631 46.8163 28.0547C47.0448 27.4463 47.0695 26.7802 46.8869 26.1566C46.7042 25.533 46.3239 24.9855 45.8033 24.5966C45.2827 24.2077 44.6498 23.9983 44 24ZM30.75 15.12C30.5161 14.9328 30.3273 14.6954 30.1975 14.4253C30.0677 14.1553 30.0002 13.8596 30 13.56V9.82C30 8.93 30.14 8.82 32.4 3.61C32.4547 3.47953 32.5365 3.36214 32.6399 3.26561C32.7433 3.16908 32.8661 3.09559 33 3.05V10.05C33.0004 10.2424 33.0563 10.4305 33.1609 10.5919C33.2656 10.7533 33.4146 10.8811 33.59 10.96L36.59 12.32C36.7189 12.378 36.8587 12.4079 37 12.4079C37.1413 12.4079 37.2811 12.378 37.41 12.32L40.41 10.96C40.5934 10.8778 40.7478 10.7423 40.8531 10.571C40.9583 10.3998 41.0095 10.2008 41 10V3.05C41.1339 3.09559 41.2567 3.16908 41.3601 3.26561C41.4635 3.36214 41.5453 3.47953 41.6 3.61L43.76 8.61C44.06 9.3 44 9.4 44 13.53C43.9998 13.8296 43.9323 14.1253 43.8025 14.3953C43.6727 14.6654 43.4839 14.9028 43.25 15.09L40.51 17.29C40.0364 17.6667 39.6545 18.1458 39.393 18.6915C39.1314 19.2371 38.9971 19.8349 39 20.44V24H35V20.44C34.9996 19.8408 34.8646 19.2493 34.605 18.7093C34.3454 18.1693 33.9677 17.6945 33.5 17.32L30.75 15.12ZM21 40H18V26H21C21.2652 26 21.5196 26.1054 21.7071 26.2929C21.8946 26.4804 22 26.7348 22 27V39C22 39.2652 21.8946 39.5196 21.7071 39.7071C21.5196 39.8946 21.2652 40 21 40ZM39 43C39 43.5304 38.7893 44.0391 38.4142 44.4142C38.0391 44.7893 37.5304 45 37 45C36.4696 45 35.9609 44.7893 35.5858 44.4142C35.2107 44.0391 35 43.5304 35 43V42H39V43ZM41 40H28.49C28.02 40 27.97 39.94 25.78 39.2C25.2033 39.028 24.6005 38.9603 24 39V27H24.5C25.121 27 25.7334 26.8554 26.2889 26.5777C26.8443 26.3 27.3274 25.8968 27.7 25.4L28.9 23.8C29.0863 23.5516 29.3279 23.35 29.6056 23.2111C29.8833 23.0723 30.1895 23 30.5 23H33V25C33 25.2652 33.1054 25.5196 33.2929 25.7071C33.4804 25.8946 33.7348 26 34 26H44C44.1969 26.0028 44.3886 26.0636 44.5511 26.175C44.7136 26.2863 44.8396 26.4431 44.9132 26.6257C44.9869 26.8083 45.0051 27.0087 44.9654 27.2016C44.9256 27.3945 44.8298 27.5713 44.69 27.71C44.35 28.07 44.08 28 43 28C42.7348 28 42.4804 28.1054 42.2929 28.2929C42.1054 28.4804 42 28.7348 42 29C42 29.2652 42.1054 29.5196 42.2929 29.7071C42.4804 29.8946 42.7348 30 43 30C43.2652 30 43.5196 30.1054 43.7071 30.2929C43.8946 30.4804 44 30.7348 44 31C44 31.2652 43.8946 31.5196 43.7071 31.7071C43.5196 31.8946 43.2652 32 43 32H42C41.7348 32 41.4804 32.1054 41.2929 32.2929C41.1054 32.4804 41 32.7348 41 33C41 33.2652 41.1054 33.5196 41.2929 33.7071C41.4804 33.8946 41.7348 34 42 34C42.2652 34 42.5196 34.1054 42.7071 34.2929C42.8946 34.4804 43 34.7348 43 35C43 35.2652 42.8946 35.5196 42.7071 35.7071C42.5196 35.8946 42.2652 36 42 36H41C40.7348 36 40.4804 36.1054 40.2929 36.2929C40.1054 36.4804 40 36.7348 40 37C40 37.2652 40.1054 37.5196 40.2929 37.7071C40.4804 37.8946 40.7348 38 41 38C41.2652 38 41.5196 38.1054 41.7071 38.2929C41.8946 38.4804 42 38.7348 42 39C42 39.2652 41.8946 39.5196 41.7071 39.7071C41.5196 39.8946 41.2652 40 41 40Z" fill="#0E0E0E"/>
</svg>
