<svg width="493" height="397" viewBox="0 0 493 397" fill="none" xmlns="http://www.w3.org/2000/svg">
<path d="M0 230.081L665 0V397H97.5L0 323.689V230.081Z" fill="#667584"/>
<path d="M105.8 245.674L65.7894 232.025C65.3067 231.86 64.659 231.778 64.0114 231.778C63.3638 231.778 62.7162 231.86 62.2334 232.025L22.2223 245.674C21.245 246.004 20.4443 247.135 20.4443 248.172V305.029C20.4443 306.066 21.1155 307.433 21.928 308.081L62.516 339.739C62.9281 340.057 63.458 340.222 63.9996 340.222C64.5413 340.222 65.0829 340.057 65.4833 339.739L106.071 308.081C106.884 307.445 107.555 306.078 107.555 305.029V248.172C107.578 247.135 106.778 246.016 105.8 245.674ZM99.1006 302.766L64.0114 330.133L28.9223 302.766V252.368L64.0114 240.394L99.1006 252.368V302.766Z" fill="#E3EAF0"/>
<path d="M49.7875 278.298C50.3998 278.298 50.9649 278.592 51.3182 279.076L58.9365 289.577L76.7048 265.086C77.0581 264.602 77.6351 264.308 78.2356 264.308H84.7353C85.5007 264.308 85.9481 265.18 85.5007 265.804L60.4673 300.303C60.2913 300.544 60.0609 300.74 59.795 300.875C59.529 301.01 59.2349 301.081 58.9365 301.081C58.6382 301.081 58.3441 301.01 58.0781 300.875C57.8121 300.74 57.5818 300.544 57.4058 300.303L42.5224 279.795C42.0749 279.17 42.5224 278.298 43.2877 278.298H49.7875Z" fill="white"/>
</svg>
