<svg width="88" height="110" viewBox="0 0 88 110" fill="none" xmlns="http://www.w3.org/2000/svg">
<path d="M85.8005 14.6737L45.7894 1.02534C45.3067 0.860335 44.659 0.777832 44.0114 0.777832C43.3638 0.777832 42.7162 0.860335 42.2334 1.02534L2.22234 14.6737C1.24503 15.0037 0.444336 16.1352 0.444336 17.1724V74.0288C0.444336 75.066 1.11551 76.4332 1.92797 77.0814L42.516 108.739C42.9281 109.057 43.458 109.222 43.9996 109.222C44.5413 109.222 45.0829 109.057 45.4833 108.739L86.0713 77.0814C86.8838 76.445 87.5549 75.0778 87.5549 74.0288V17.1724C87.5785 16.1352 86.7778 15.0155 85.8005 14.6737ZM79.1006 71.7659L44.0114 99.1333L8.92225 71.7659V21.3682L44.0114 9.39351L79.1006 21.3682V71.7659Z" fill="#E3EAF0"/>
<path d="M29.7875 47.2978C30.3998 47.2978 30.9649 47.5924 31.3182 48.0757L38.9365 58.5771L56.7048 34.0855C57.0581 33.6023 57.6351 33.3076 58.2356 33.3076H64.7353C65.5007 33.3076 65.9481 34.1798 65.5007 34.8045L40.4673 69.3025C40.2913 69.5437 40.0609 69.7398 39.795 69.875C39.529 70.0102 39.2349 70.0807 38.9365 70.0807C38.6382 70.0807 38.3441 70.0102 38.0781 69.875C37.8121 69.7398 37.5818 69.5437 37.4058 69.3025L22.5224 48.7946C22.0749 48.17 22.5224 47.2978 23.2877 47.2978H29.7875Z" fill="white"/>
</svg>
