<svg width="16" height="13" viewBox="0 0 16 13" fill="none" xmlns="http://www.w3.org/2000/svg">
<path d="M13.5129 0.405901C13.7894 0.142676 14.1573 -0.00284622 14.5391 4.21899e-05C14.9208 0.0029306 15.2865 0.154004 15.559 0.421383C15.8315 0.688762 15.9894 1.05153 15.9995 1.43315C16.0096 1.81477 15.871 2.18538 15.6131 2.46678L7.78171 12.2609C7.64705 12.4059 7.48452 12.5223 7.30384 12.6031C7.12317 12.6839 6.92805 12.7274 6.73017 12.7311C6.53229 12.7348 6.3357 12.6985 6.15215 12.6244C5.96861 12.5504 5.80188 12.4401 5.66194 12.3001L0.468524 7.10671C0.323895 6.97194 0.207893 6.80943 0.127436 6.62886C0.0469793 6.44829 0.00371646 6.25336 0.000229091 6.05571C-0.00325828 5.85805 0.0331013 5.66172 0.107138 5.47842C0.181175 5.29513 0.291372 5.12862 0.431156 4.98883C0.570941 4.84905 0.737448 4.73885 0.920745 4.66482C1.10404 4.59078 1.30037 4.55442 1.49803 4.55791C1.69568 4.56139 1.89061 4.60466 2.07118 4.68511C2.25175 4.76557 2.41427 4.88157 2.54903 5.0262L6.65902 9.13423L13.4756 0.449082C13.4879 0.433971 13.501 0.419554 13.5149 0.405901H13.5129Z" fill="#0E0E0E"/>
</svg>
