<svg width="273" height="85" viewBox="0 0 273 85" fill="none" xmlns="http://www.w3.org/2000/svg">
<g clip-path="url(#clip0_207_264)">
<path fill-rule="evenodd" clip-rule="evenodd" d="M51.793 9.875C52.9258 10.3125 54.0234 10.8086 55.0859 11.3555C55.1641 13.3438 56.1016 15.2461 57.8086 16.4531C59.4844 17.6406 61.5469 17.9023 63.418 17.3555C64.3086 18.2227 65.1523 19.1367 65.9414 20.0898C65.3047 21.918 65.457 23.9688 66.5391 25.6953C67.5898 27.375 69.2969 28.3984 71.1562 28.6641C71.418 29.2734 71.6602 29.8945 71.8867 30.5195H67.1523C62.5859 19.4258 51.7344 11.6211 39.0742 11.6211C26.4141 11.6211 15.5664 19.4258 11 30.5195H6.53125C6.83203 29.6836 7.16016 28.8633 7.51562 28.0664C9.32422 27.8008 10.9883 26.8164 12.0391 25.1992C13.1289 23.5313 13.332 21.5352 12.7773 19.7266C13.4844 18.9023 14.2227 18.1133 14.9961 17.3594C16.8359 17.8672 18.8438 17.5898 20.4844 16.4297C22.168 15.2461 23.1055 13.3867 23.207 11.4336C24.5 10.7617 25.832 10.168 27.2031 9.66407C28.6992 10.9492 30.7109 11.5586 32.7422 11.1484C34.8047 10.7344 36.4375 9.36328 37.3086 7.56641C38.7539 7.48828 40.2109 7.4961 41.6797 7.60547C42.5156 9.42188 44.1211 10.832 46.1719 11.2891C48.2188 11.7461 50.2656 11.1602 51.793 9.875Z" fill="white"/>
<path d="M51.8164 9.8125C52.3828 10.0312 52.9375 10.2656 53.4883 10.5117C54.0391 10.7578 54.582 11.0195 55.1172 11.293L55.1523 11.3125V11.3516C55.1914 12.3555 55.4531 13.3359 55.9219 14.2148C56.3711 15.0586 57.0156 15.8125 57.8477 16.3984C58.6602 16.9727 59.5664 17.3281 60.4961 17.4805C61.4609 17.6328 62.4531 17.5664 63.3984 17.2891L63.4375 17.2773L63.4648 17.3047C63.9141 17.7422 64.3477 18.1875 64.7656 18.6445C65.1875 19.1016 65.5977 19.5703 65.9922 20.0469L66.0156 20.0781L66.0039 20.1133C65.6836 21.0352 65.5664 22.0117 65.668 22.9805C65.7695 23.9062 66.0703 24.8203 66.5977 25.6602C67.1055 26.4727 67.7734 27.1328 68.5352 27.6211C69.3281 28.1328 70.2305 28.4609 71.168 28.5977L71.2031 28.6016L71.2188 28.6367C71.3516 28.9492 71.4805 29.2656 71.6055 29.582C71.7266 29.8945 71.8438 30.207 71.957 30.5195H67.0781C64.7656 24.918 60.8516 20.1602 55.9062 16.8281C51.0898 13.582 45.3008 11.6875 39.0742 11.6875C32.8477 11.6875 27.0586 13.582 22.2422 16.8281C17.3008 20.1602 13.3828 24.918 11.0703 30.5195H6.46094C6.60937 30.1016 6.76562 29.6875 6.92969 29.2773C7.09766 28.8594 7.27344 28.4453 7.45703 28.0352L7.46875 28.0039L7.50781 27.9961C8.41797 27.8633 9.29297 27.5469 10.0703 27.0547C10.8164 26.582 11.4727 25.9453 11.9844 25.1641C12.5117 24.3555 12.8281 23.4648 12.9492 22.5625C13.0781 21.6211 12.9922 20.6602 12.7148 19.75L12.7031 19.7109L12.7266 19.6836C13.0781 19.2695 13.4414 18.8672 13.8125 18.4727C14.1797 18.0781 14.5625 17.6914 14.9492 17.3125L14.9766 17.2852L15.0156 17.2969C15.9414 17.5508 16.9141 17.6055 17.8594 17.4453C18.7656 17.2891 19.6523 16.9375 20.4453 16.375C21.2617 15.8008 21.9023 15.0625 22.3516 14.2344C22.8203 13.375 23.0898 12.4141 23.1406 11.4297L23.1445 11.3906L23.1758 11.3711C23.8242 11.0352 24.4805 10.7187 25.1523 10.4219C25.8164 10.1289 26.4961 9.85156 27.1797 9.59766L27.2188 9.58594L27.2461 9.60937C28 10.2617 28.8906 10.7344 29.8438 10.9922C30.7617 11.2383 31.7422 11.2812 32.7305 11.082C33.7305 10.8828 34.6289 10.4531 35.3867 9.85937C36.1719 9.23828 36.8086 8.44141 37.25 7.53516L37.2656 7.5L37.3047 7.49609C38.0312 7.45703 38.7617 7.44141 39.4961 7.44922C40.2227 7.45312 40.9531 7.48437 41.6836 7.53516L41.7266 7.53906L41.7422 7.57422C42.1641 8.49219 42.7812 9.30469 43.5547 9.94141C44.3008 10.5508 45.1914 11 46.1875 11.2227C47.1797 11.4453 48.1758 11.418 49.1055 11.1836C50.0742 10.9414 50.9805 10.4727 51.75 9.82422L51.7812 9.79687L51.8164 9.8125ZM53.4297 10.6328C52.8984 10.3945 52.3555 10.168 51.8047 9.95312C51.0273 10.6016 50.1133 11.0703 49.1406 11.3164C48.1875 11.5547 47.1719 11.582 46.1602 11.3555C45.1406 11.1289 44.2305 10.668 43.4688 10.0469C42.6914 9.40625 42.0625 8.58984 41.6367 7.66797C40.918 7.61719 40.2031 7.58984 39.4961 7.58203C38.7773 7.57812 38.0625 7.59375 37.3516 7.62891C36.9062 8.54297 36.2617 9.34375 35.4688 9.96484C34.6953 10.5742 33.7773 11.0117 32.7578 11.2148C31.75 11.418 30.7461 11.375 29.8086 11.1211C28.8477 10.8633 27.9531 10.3906 27.1875 9.73828C26.5195 9.98828 25.8594 10.2578 25.207 10.5469C24.5547 10.8359 23.9102 11.1445 23.2734 11.4766C23.2148 12.4648 22.9453 13.4336 22.4727 14.3008C22.0117 15.1484 21.3594 15.8984 20.5234 16.4883C19.7109 17.0625 18.8086 17.4219 17.8789 17.5781C16.9297 17.7383 15.9531 17.6875 15.0156 17.4375C14.6406 17.8047 14.2695 18.1797 13.9102 18.5664C13.5469 18.9492 13.1953 19.3437 12.8555 19.7422C13.1289 20.6641 13.2148 21.6289 13.0859 22.5781C12.9609 23.5039 12.6367 24.4102 12.0977 25.2383C11.5742 26.0391 10.9062 26.6836 10.1406 27.168C9.35938 27.6641 8.48047 27.9883 7.5625 28.125C7.38672 28.5195 7.21875 28.9219 7.05469 29.3281C6.90234 29.7109 6.75391 30.1016 6.61328 30.4922H10.9375C13.2578 24.8555 17.1953 20.0664 22.168 16.7148C27.0039 13.4531 32.8203 11.5508 39.0742 11.5508C45.332 11.5508 51.1445 13.4531 55.9805 16.7148C60.9531 20.0664 64.8945 24.8555 67.2148 30.4922H71.8047C71.6992 30.2031 71.5898 29.9141 71.4805 29.6328C71.3594 29.3281 71.2383 29.0234 71.1094 28.7266C70.168 28.5859 69.2617 28.25 68.4609 27.7383C67.6836 27.2344 67 26.5625 66.4805 25.7305C65.9453 24.875 65.6367 23.9414 65.5352 22.9922C65.4297 22.0195 65.5469 21.0352 65.8633 20.1055C65.4766 19.6367 65.0781 19.1797 64.668 18.7344C64.2578 18.2891 63.832 17.8555 63.3984 17.4297C62.4453 17.7031 61.4453 17.7695 60.4727 17.6133C59.5234 17.4609 58.5977 17.0938 57.7695 16.5078C56.9219 15.9102 56.2617 15.1406 55.8008 14.2773C55.3281 13.3906 55.0664 12.4062 55.0195 11.3984C54.5 11.1289 53.9688 10.875 53.4297 10.6328Z" fill="white"/>
<path fill-rule="evenodd" clip-rule="evenodd" d="M39.207 13.3242C50.7578 13.3242 60.6953 20.3906 65.0977 30.5195H63.4805C59.1758 21.2422 49.9258 14.8242 39.207 14.8242C28.4844 14.8242 19.2344 21.2422 14.9297 30.5195H13.3125C17.7188 20.3906 27.6523 13.3242 39.207 13.3242Z" fill="white"/>
<path d="M39.207 13.2578C47.0469 13.2578 54.1406 16.5 59.2812 21.75C61.7383 24.2578 63.7461 27.2305 65.1758 30.5195H65.0273C63.6094 27.2656 61.6172 24.3281 59.1836 21.8438C54.0703 16.6211 47.0078 13.3906 39.207 13.3906C31.4023 13.3906 24.3398 16.6211 19.2266 21.8438C16.793 24.3281 14.8047 27.2656 13.3828 30.5195H13.2383C14.6641 27.2305 16.6719 24.2578 19.1328 21.75C24.2695 16.5 31.3672 13.2578 39.207 13.2578ZM63.5586 30.5195H63.4102C62.0859 27.6758 60.2969 25.1055 58.1445 22.9063C53.2969 17.9531 46.6016 14.8945 39.207 14.8945C31.8086 14.8945 25.1133 17.9531 20.2656 22.9063C18.1133 25.1055 16.3242 27.6758 15.0039 30.5195H14.8516C16.1836 27.6406 17.9922 25.0352 20.1719 22.8086C25.043 17.8359 31.7734 14.7578 39.207 14.7578C46.6406 14.7578 53.3672 17.8359 58.2422 22.8086C60.418 25.0352 62.2266 27.6406 63.5586 30.5195Z" fill="white"/>
<path fill-rule="evenodd" clip-rule="evenodd" d="M39.207 16.1445C49.1914 16.1445 57.8398 21.9922 62.0469 30.5195H52.3555C49.1172 26.957 44.4258 24.7188 39.207 24.7188C33.9844 24.7188 29.2969 26.957 26.0547 30.5195H16.3672C20.5703 21.9922 29.2188 16.1445 39.207 16.1445Z" fill="white"/>
<path d="M39.207 16.0742C46.2812 16.0742 52.6914 19.0039 57.3281 23.7422C59.2578 25.7148 60.8828 28 62.1211 30.5195H61.9688C60.7422 28.0391 59.1367 25.7852 57.2305 23.8359C52.6172 19.125 46.2461 16.2109 39.207 16.2109C32.168 16.2109 25.793 19.125 21.1797 23.8359C19.2734 25.7852 17.668 28.0391 16.4414 30.5195H16.2891C17.5273 28 19.1523 25.7148 21.082 23.7422C25.7227 19.0039 32.1289 16.0742 39.207 16.0742ZM52.4453 30.5195H52.2656C52.0703 30.3086 51.8711 30.1016 51.668 29.9023C48.4805 26.7422 44.0742 24.7852 39.207 24.7852C34.3359 24.7852 29.9297 26.7422 26.7422 29.9023C26.5391 30.1016 26.3398 30.3086 26.1484 30.5195H25.9648C26.1836 30.2773 26.4141 30.0352 26.6445 29.8047C29.8594 26.6211 34.3008 24.6523 39.207 24.6523C44.1094 24.6523 48.5508 26.6211 51.7656 29.8047C52 30.0352 52.2266 30.2773 52.4453 30.5195Z" fill="white"/>
<path fill-rule="evenodd" clip-rule="evenodd" d="M39.207 27.0078C42.9414 27.0078 46.3633 28.3281 49.0273 30.5195H29.3828C32.0469 28.3281 35.4727 27.0078 39.207 27.0078Z" fill="white"/>
<path d="M39.207 26.9414C42.9844 26.9414 46.4492 28.2852 49.1328 30.5195H48.9219C46.2773 28.3672 42.8945 27.0781 39.207 27.0781C35.5156 27.0781 32.1328 28.3672 29.4883 30.5195H29.2773C31.9609 28.2852 35.4258 26.9414 39.207 26.9414Z" fill="white"/>
<path fill-rule="evenodd" clip-rule="evenodd" d="M-0.222656 32.1328H78.7383V33.2656H-0.222656V32.1328Z" fill="white" stroke="#1A1A18" stroke-width="0.5669" stroke-miterlimit="22.9256"/>
<path fill-rule="evenodd" clip-rule="evenodd" d="M-0.320312 50.8242H78.7383V51.9531H-0.320312V50.8242Z" fill="white" stroke="#1A1A18" stroke-width="0.5669" stroke-miterlimit="22.9256"/>
<path d="M12.8164 46.3711H16.8477L19.4648 39.0742V46.3711H23.4961V37.6562H19.4648L16.8477 44.957V37.6562H12.8164V46.3711ZM29.0508 46.0469C27.0898 46.0469 27.2031 45.7734 27.2031 43.7578H24.9102C24.9102 46.1016 26.7656 46.4805 29.0508 46.4805H30.793C33.7383 46.4805 35.9141 46.0469 35.9141 44.0859C35.9141 42.832 34.8242 42.125 33.1367 41.8516V41.6875C34.8242 41.4688 35.8086 40.8164 35.8086 39.7266C35.8086 38.2031 33.6289 37.5469 30.793 37.5469H29.0508C26.7656 37.5469 24.9102 37.9297 24.9102 40.2734H27.2656C27.2656 38.2539 27.0898 37.9844 29.0508 37.9844H30.793V46.0469H29.0508ZM43.2148 45.9375H41.4727V38.0938H43.2148V45.9375ZM45.5586 41.6875C46.918 41.4688 47.8984 40.793 47.8984 39.8359C47.8984 38.418 45.7227 37.6562 43.2148 37.6562H37.1133V46.3711H43.2148C46.1562 46.3711 48.3359 45.6094 48.3359 43.9766C48.3359 42.8203 47.2461 42.125 45.5586 41.8516V41.6875ZM55.0898 45.9375H53.6758V37.6562H49.5352V46.3711H64.7891V37.6562H60.6484V45.9375H59.2305V37.6562H55.0898V45.9375Z" fill="white"/>
<path fill-rule="evenodd" clip-rule="evenodd" d="M26.2188 74.2109C25.0859 73.7695 23.9883 73.2773 22.9258 72.7305C22.8477 70.7422 21.9102 68.8398 20.2031 67.6328C18.5273 66.4453 16.4648 66.1836 14.5938 66.7305C13.7031 65.8633 12.8594 64.9492 12.0703 63.9922C12.707 62.168 12.5508 60.1172 11.4727 58.3906C10.4219 56.7109 8.71484 55.6875 6.85547 55.4219C6.59375 54.8086 6.35156 54.1914 6.125 53.5664H10.8594C15.4258 64.6602 26.2773 72.4648 38.9375 72.4648C51.5977 72.4648 62.4453 64.6602 67.0117 53.5664H71.4805C71.1797 54.4023 70.8516 55.2188 70.4961 56.0195C68.6875 56.2852 67.0234 57.2695 65.9727 58.8828C64.8828 60.5547 64.6797 62.5508 65.2344 64.3555C64.5273 65.1797 63.7891 65.9727 63.0156 66.7227C61.1758 66.2188 59.168 66.4961 57.5234 67.6523C55.8438 68.8398 54.9062 70.6992 54.8047 72.6523C53.5117 73.3242 52.1758 73.9141 50.8086 74.4219C49.3125 73.1367 47.3008 72.5234 45.2656 72.9336C43.207 73.3516 41.5742 74.7188 40.7031 76.5195C39.2578 76.5977 37.8008 76.5859 36.332 76.4805C35.4961 74.6602 33.8906 73.2539 31.8398 72.7969C29.793 72.3398 27.7461 72.9258 26.2188 74.2109Z" fill="white"/>
<path d="M26.1953 74.2734C25.6289 74.0547 25.0742 73.8203 24.5234 73.5742C23.9727 73.3281 23.4297 73.0664 22.8945 72.7891L22.8594 72.7734V72.7305C22.8203 71.7305 22.5586 70.75 22.0898 69.8711C21.6406 69.0234 20.9922 68.2734 20.1641 67.6875C19.3516 67.1133 18.4453 66.7539 17.5156 66.6055C16.5508 66.4492 15.5547 66.5195 14.6133 66.7969L14.5742 66.8086L14.5469 66.7812C14.0977 66.3438 13.6641 65.8984 13.2461 65.4414C12.8242 64.9844 12.4141 64.5156 12.0195 64.0352L11.9961 64.0078L12.0078 63.9727C12.3281 63.0508 12.4453 62.0703 12.3438 61.1055C12.2422 60.1797 11.9375 59.2617 11.4141 58.4258C10.9063 57.6094 10.2383 56.9531 9.47656 56.4609C8.68359 55.9531 7.78125 55.6211 6.84375 55.4883L6.80469 55.4844L6.79297 55.4492C6.66016 55.1328 6.53125 54.8203 6.40625 54.5039C6.28516 54.1914 6.16797 53.8789 6.05469 53.5664H10.9336C13.2461 59.1641 17.1602 63.9258 22.1055 67.2578C26.918 70.5039 32.707 72.3984 38.9375 72.3984C45.1641 72.3984 50.9531 70.5039 55.7695 67.2578C60.7109 63.9258 64.6289 59.1641 66.9414 53.5664H71.5508C71.4023 53.9844 71.2461 54.3984 71.082 54.8086C70.9141 55.2227 70.7383 55.6367 70.5547 56.0469L70.543 56.082L70.5039 56.0859C69.5938 56.2227 68.7188 56.5391 67.9414 57.0312C67.1953 57.5039 66.5391 58.1367 66.0273 58.9219C65.5 59.7305 65.1836 60.6172 65.0625 61.5234C64.9336 62.4648 65.0195 63.4258 65.2969 64.3359L65.3086 64.3711L65.2852 64.4023C64.9297 64.8125 64.5703 65.2188 64.1992 65.6133C63.832 66.0078 63.4492 66.3945 63.0625 66.7734L63.0352 66.8008L62.9961 66.7891C62.0703 66.5352 61.0977 66.4805 60.1523 66.6406C59.2461 66.793 58.3594 67.1484 57.5625 67.707C56.75 68.2852 56.1094 69.0195 55.6602 69.8477C55.1914 70.7109 54.9219 71.6719 54.8711 72.6562L54.8672 72.6953L54.8359 72.7109C54.1875 73.0469 53.5273 73.3672 52.8594 73.6602C52.1914 73.957 51.5156 74.2305 50.832 74.4844L50.793 74.5L50.7656 74.4727C50.0078 73.8242 49.1211 73.3477 48.168 73.0938C47.25 72.8477 46.2656 72.8008 45.2812 73C44.2812 73.2031 43.3828 73.6328 42.625 74.2266C41.8398 74.8438 41.2031 75.6406 40.7617 76.5508L40.7461 76.5859H40.707C39.9805 76.625 39.25 76.6445 38.5156 76.6367C37.7852 76.6289 37.0586 76.6016 36.3281 76.5469H36.2852L36.2695 76.5078C35.8477 75.5898 35.2305 74.7773 34.457 74.1445C33.7109 73.5312 32.8203 73.0859 31.8242 72.8633C30.832 72.6406 29.8359 72.668 28.9062 72.9023C27.9375 73.1445 27.0312 73.6133 26.2617 74.2617L26.2305 74.2852L26.1953 74.2734ZM24.582 73.4492C25.1133 73.6914 25.6562 73.918 26.207 74.1328C26.9844 73.4844 27.8945 73.0156 28.8711 72.7695C29.8242 72.5312 30.8398 72.5039 31.8516 72.7305C32.8711 72.957 33.7812 73.4141 34.543 74.0391C35.3203 74.6797 35.9453 75.4961 36.375 76.4141C37.0938 76.4688 37.8086 76.4961 38.5156 76.5C39.2344 76.5078 39.9492 76.4922 40.6602 76.4531C41.1055 75.543 41.75 74.7422 42.543 74.1211C43.3164 73.5117 44.2344 73.0742 45.2539 72.8672C46.2617 72.6641 47.2656 72.7109 48.2031 72.9609C49.1641 73.2188 50.0586 73.6953 50.8203 74.3438C51.4922 74.0938 52.1523 73.8281 52.8047 73.5391C53.457 73.25 54.1016 72.9375 54.7383 72.6094C54.7969 71.6172 55.0664 70.6523 55.5391 69.7852C56 68.9375 56.6523 68.1875 57.4883 67.5977C58.3008 67.0234 59.2031 66.6641 60.1289 66.5078C61.082 66.3477 62.0586 66.3984 62.9961 66.6484C63.3711 66.2812 63.7422 65.9062 64.1016 65.5195C64.4609 65.1328 64.8164 64.7422 65.1562 64.3398C64.8789 63.4219 64.7969 62.4531 64.9258 61.5078C65.0508 60.582 65.375 59.6758 65.9141 58.8477C66.4336 58.0469 67.1055 57.3984 67.8672 56.918C68.6523 56.4219 69.5312 56.0977 70.4492 55.957C70.625 55.5625 70.793 55.1641 70.957 54.7578C71.1094 54.3711 71.2578 53.9844 71.3984 53.5938H67.0742C64.7539 59.2305 60.8164 64.0195 55.8438 67.3711C51.0078 70.6289 45.1914 72.5312 38.9375 72.5312C32.6797 72.5312 26.8672 70.6289 22.0273 67.3711C17.0586 64.0195 13.1172 59.2305 10.7969 53.5938H6.20703C6.3125 53.8828 6.42188 54.168 6.53125 54.4531C6.65234 54.7578 6.77344 55.0586 6.90234 55.3594C7.84375 55.5 8.75 55.832 9.55078 56.3477C10.3281 56.8477 11.0117 57.5234 11.5312 58.3555C12.0664 59.207 12.375 60.1445 12.4766 61.0898C12.582 62.0625 12.4648 63.0508 12.1484 63.9805C12.5352 64.4453 12.9336 64.9023 13.3438 65.3477C13.7539 65.7969 14.1797 66.2305 14.6133 66.6562C15.5625 66.3828 16.5625 66.3164 17.5391 66.4727C18.4883 66.625 19.4141 66.9883 20.2422 67.5781C21.0898 68.1758 21.75 68.9453 22.2109 69.8086C22.6836 70.6914 22.9453 71.6797 22.9922 72.6875C23.5117 72.9531 24.043 73.207 24.582 73.4492Z" fill="white"/>
<path fill-rule="evenodd" clip-rule="evenodd" d="M38.8047 70.7617C27.2539 70.7617 17.3164 63.6953 12.9141 53.5664H14.5312C18.8359 62.8438 28.0859 69.2578 38.8047 69.2578C49.5273 69.2578 58.7773 62.8438 63.082 53.5664H64.6992C60.293 63.6953 50.3594 70.7617 38.8047 70.7617Z" fill="white"/>
<path d="M38.8047 70.8281C30.9648 70.8281 23.8711 67.582 18.7305 62.3359C16.2734 59.8242 14.2656 56.8555 12.8359 53.5664H12.9844C14.4023 56.8203 16.3945 59.7578 18.8281 62.2422C23.9414 67.4609 31.0039 70.6914 38.8047 70.6914C46.6094 70.6914 53.6719 67.4609 58.7852 62.2422C61.2188 59.7578 63.207 56.8203 64.6289 53.5664H64.7734C63.3477 56.8555 61.3398 59.8242 58.8789 62.3359C53.7422 67.582 46.6445 70.8281 38.8047 70.8281ZM14.4531 53.5664H14.6016C15.9258 56.4063 17.7148 58.9805 19.8672 61.1797C24.7148 66.1289 31.4102 69.1914 38.8047 69.1914C46.2031 69.1914 52.8984 66.1289 57.7422 61.1797C59.8984 58.9805 61.6875 56.4063 63.0078 53.5664H63.1562C61.8281 56.4453 60.0195 59.0508 57.8398 61.2734C52.9688 66.25 46.2383 69.3281 38.8047 69.3281C31.3711 69.3281 24.6406 66.25 19.7695 61.2734C17.5938 59.0508 15.7852 56.4453 14.4531 53.5664Z" fill="white"/>
<path fill-rule="evenodd" clip-rule="evenodd" d="M38.8047 67.9414C28.8203 67.9414 20.1719 62.0898 15.9648 53.5664H25.6562C28.8945 57.125 33.5859 59.3672 38.8047 59.3672C44.0273 59.3672 48.7148 57.125 51.957 53.5664H61.6445C57.4414 62.0898 48.793 67.9414 38.8047 67.9414Z" fill="white"/>
<path d="M38.8047 68.0078C31.7305 68.0078 25.3203 65.0781 20.6836 60.3438C18.7539 58.3711 17.1289 56.082 15.8906 53.5664H16.0391C17.2695 56.0469 18.875 58.3008 20.7812 60.2461C25.3945 64.9609 31.7656 67.875 38.8047 67.875C45.8438 67.875 52.2188 64.9609 56.832 60.2461C58.7383 58.3008 60.3438 56.0469 61.5703 53.5664H61.7227C60.4844 56.082 58.8594 58.3711 56.9297 60.3438C52.2891 65.0781 45.8828 68.0078 38.8047 68.0078ZM25.5664 53.5664H25.7461C25.9414 53.7773 26.1406 53.9805 26.3438 54.1836C29.5312 57.3437 33.9375 59.2969 38.8047 59.2969C43.6719 59.2969 48.082 57.3437 51.2695 54.1836C51.4727 53.9805 51.6719 53.7773 51.8633 53.5664H52.0469C51.8281 53.8086 51.5977 54.0469 51.3672 54.2812C48.1523 57.4648 43.7109 59.4336 38.8047 59.4336C33.9023 59.4336 29.4609 57.4648 26.2461 54.2812C26.0117 54.0469 25.7852 53.8086 25.5664 53.5664Z" fill="white"/>
<path fill-rule="evenodd" clip-rule="evenodd" d="M38.8047 57.0781C35.0703 57.0781 31.6484 55.7578 28.9844 53.5664H48.6289C45.9648 55.7578 42.5391 57.0781 38.8047 57.0781Z" fill="white"/>
<path d="M38.8047 57.1445C35.0273 57.1445 31.5625 55.7969 28.875 53.5664H29.0898C31.7344 55.7148 35.1172 57.0078 38.8047 57.0078C42.4961 57.0078 45.8789 55.7148 48.5234 53.5664H48.7344C46.0508 55.7969 42.5859 57.1445 38.8047 57.1445Z" fill="white"/>
<path d="M88.7188 38.707L91.625 30.7852V38.707H93.6602V25.7734H91.8438L88.957 33.6914V25.7734H86.9219V38.707H88.7188ZM102.414 29.7148C102.414 27.0078 101.434 25.7734 99.0898 25.7734H95.8398V38.707H97.875V33.6367H99.0898C101.434 33.6367 102.414 32.4219 102.414 29.7148ZM100.383 29.7148C100.383 31.0234 100.109 31.8008 99.0195 31.8008H97.875V27.6055H99.0195C100.109 27.6055 100.383 28.4062 100.383 29.7148ZM111.516 38.707L108.211 31.875L111.172 25.7734H109.027L106.121 31.9648L109.262 38.707H111.516ZM106.086 38.707V25.7734H104.051V38.707H106.086ZM119.234 25.7734H117.02L115.477 31.7461L113.914 25.7734H111.699L114.531 34.5078L114.242 35.5625C113.949 36.5781 113.551 36.8867 112.426 36.8867V38.707C114.496 38.707 115.238 38.3242 115.82 36.5078L119.234 25.7734ZM126.066 27.6055V25.7734H119.691V27.6055H121.852V38.707H123.887V27.6055H126.066ZM133.766 35.2734H131.734C131.715 35.7461 131.641 36.2148 131.426 36.543C131.242 36.8359 130.953 37.0156 130.461 37.0156C129.973 37.0156 129.68 36.8164 129.5 36.5234C129.098 35.9062 129.043 34.6016 129.043 32.2383C129.043 29.8789 129.098 28.5703 129.5 27.9531C129.68 27.6602 129.973 27.4609 130.461 27.4609C130.953 27.4609 131.242 27.6445 131.426 27.9336C131.641 28.2422 131.715 28.7148 131.734 29.1875H133.766C133.73 28.043 133.387 27.0625 132.73 26.4609C132.152 25.918 131.441 25.625 130.461 25.625C129.262 25.625 128.48 26.0977 127.953 26.7344C127.102 27.7539 127.012 29.168 127.012 32.2383C127.012 35.3086 127.102 36.7266 127.953 37.7422C128.48 38.3789 129.262 38.8516 130.461 38.8516C131.441 38.8516 132.113 38.5781 132.695 38.0312C133.348 37.4336 133.73 36.4336 133.766 35.2734ZM142.902 38.707L139.598 31.875L142.559 25.7734H140.414L137.508 31.9648L140.652 38.707H142.902ZM137.473 38.707V25.7734H135.438V38.707H137.473ZM145.902 38.707L148.809 30.7852V38.707H150.844V25.7734H149.023L146.137 33.6914V25.7734H144.102V38.707H145.902ZM154.82 38.707L157.727 30.7852V38.707H159.762V25.7734H157.945L155.055 33.6914V25.7734H153.023V38.707H154.82ZM158.707 22.8477H157.344C157.309 23.4648 156.891 23.6836 156.383 23.6836C155.875 23.6836 155.457 23.4648 155.418 22.8477H154.059C154.113 24.4453 155.184 24.9531 156.383 24.9531C157.582 24.9531 158.652 24.4453 158.707 22.8477ZM171.348 35.1094C171.348 33.9102 171.148 33.3086 170.75 32.8203C170.531 32.5469 170.242 32.293 169.879 32.1133C170.223 31.9102 170.496 31.6758 170.73 31.3672C171.133 30.8594 171.293 30.3125 171.293 29.2969C171.293 28.0078 171.113 27.2266 170.461 26.5352C169.879 25.918 169.078 25.625 168.023 25.625C167.008 25.625 166.227 25.918 165.684 26.4609C165.082 27.0977 164.754 28.0078 164.738 29.1875H166.754C166.773 28.6406 166.879 28.168 167.137 27.8438C167.336 27.6055 167.625 27.4609 168.023 27.4609C168.406 27.4609 168.695 27.5898 168.898 27.8242C169.207 28.168 169.262 28.625 169.262 29.3672C169.262 30.2773 169.133 30.6758 168.844 30.9844C168.645 31.2031 168.352 31.293 168.023 31.293H167.008V33.0195H168.023C168.371 33.0195 168.645 33.1094 168.879 33.3477C169.168 33.6562 169.316 34.0898 169.316 35.0352C169.316 35.7812 169.223 36.2891 168.914 36.6523C168.715 36.8867 168.426 37.0156 168.023 37.0156C167.625 37.0156 167.336 36.8711 167.117 36.6328C166.863 36.3086 166.754 35.8516 166.754 35.2891H164.719C164.754 36.4883 165.047 37.4141 165.684 38.0508C166.227 38.5977 166.988 38.8516 168.023 38.8516C169.113 38.8516 169.934 38.543 170.531 37.8867C171.148 37.2148 171.348 36.418 171.348 35.1094ZM180.523 38.707L177.379 25.7734H175.398L172.223 38.707H174.363L174.871 36.1445H177.871L178.398 38.707H180.523ZM177.488 34.3086H175.273L176.379 28.8945L177.488 34.3086ZM188.316 35C188.316 33.8008 188.168 33.0195 187.57 32.4023C187.387 32.2188 187.133 32.0586 186.859 31.9297C187.133 31.8203 187.352 31.6563 187.535 31.4766C188.133 30.8594 188.277 30.1484 188.277 29.2227C188.277 27.8242 188.059 27.1719 187.461 26.5703C186.934 26.0273 186.152 25.7734 184.953 25.7734H181.723V38.707H184.938C186.152 38.707 186.934 38.4336 187.48 37.8867C188.098 37.2539 188.316 36.5234 188.316 35ZM186.281 34.8555C186.281 36.3633 185.824 36.8711 184.734 36.8711H183.754V32.8398H184.734C185.824 32.8398 186.281 33.418 186.281 34.8555ZM186.242 29.3516C186.242 30.5859 185.824 31.1133 184.773 31.1133H183.754V27.6055H184.773C185.824 27.6055 186.242 28.0781 186.242 29.3516ZM196.852 32.2383C196.852 29.168 196.777 27.7539 195.906 26.7344C195.379 26.0977 194.598 25.625 193.402 25.625C192.203 25.625 191.422 26.0977 190.895 26.7344C190.039 27.7695 189.949 29.168 189.949 32.2383C189.949 35.3086 190.039 36.707 190.895 37.7422C191.422 38.3789 192.203 38.8516 193.402 38.8516C194.598 38.8516 195.379 38.3789 195.906 37.7422C196.777 36.7266 196.852 35.3086 196.852 32.2383ZM194.816 32.2383C194.816 34.6016 194.762 35.9062 194.383 36.5234C194.199 36.8164 193.891 37.0156 193.402 37.0156C192.91 37.0156 192.621 36.8164 192.438 36.5234C192.059 35.9062 191.984 34.6016 191.984 32.2383C191.984 29.8789 192.059 28.5703 192.438 27.9531C192.621 27.6602 192.91 27.4609 193.402 27.4609C193.891 27.4609 194.199 27.6602 194.383 27.9531C194.762 28.5703 194.816 29.8789 194.816 32.2383ZM206.645 41.1562V36.8711H205.57V25.7734H199.469V30.6055C199.469 33.1641 199.066 35.1641 198.395 36.8711H197.559V41.1562H199.484V38.707H204.719V41.1562H206.645ZM203.535 36.8711H200.469C201.066 35.2539 201.41 33.4375 201.41 31.1133V27.5898H203.535V36.8711ZM93.5156 59.7031V46.7695H86.9023V59.7031H88.9375V48.6055H91.4805V59.7031H93.5156ZM102.254 53.2383C102.254 50.168 102.18 48.75 101.309 47.7344C100.781 47.0977 100 46.625 98.8008 46.625C97.6016 46.625 96.8203 47.0977 96.293 47.7344C95.4414 48.7695 95.3477 50.168 95.3477 53.2383C95.3477 56.3047 95.4414 57.707 96.293 58.7422C96.8203 59.375 97.6016 59.8477 98.8008 59.8477C100 59.8477 100.781 59.375 101.309 58.7422C102.18 57.7227 102.254 56.3047 102.254 53.2383ZM100.219 53.2383C100.219 55.5977 100.164 56.9062 99.7812 57.5234C99.6016 57.8125 99.293 58.0156 98.8008 58.0156C98.3086 58.0156 98.0195 57.8125 97.8398 57.5234C97.457 56.9062 97.3828 55.5977 97.3828 53.2383C97.3828 50.875 97.457 49.5664 97.8398 48.9492C98.0195 48.6602 98.3086 48.4609 98.8008 48.4609C99.293 48.4609 99.6016 48.6602 99.7812 48.9492C100.164 49.5664 100.219 50.875 100.219 53.2383ZM113.934 55.9961C113.934 54.7969 113.785 54.0195 113.188 53.3984C113.004 53.2188 112.75 53.0547 112.477 52.9297C112.75 52.8203 112.969 52.6562 113.152 52.4727C113.75 51.8555 113.895 51.1484 113.895 50.2227C113.895 48.8242 113.676 48.168 113.078 47.5703C112.551 47.0234 111.77 46.7695 110.57 46.7695H107.34V59.7031H110.555C111.77 59.7031 112.551 59.4297 113.098 58.8867C113.715 58.25 113.934 57.5234 113.934 55.9961ZM111.898 55.8516C111.898 57.3594 111.441 57.8672 110.352 57.8672H109.371V53.8359H110.352C111.441 53.8359 111.898 54.418 111.898 55.8516ZM111.859 50.3477C111.859 51.582 111.441 52.1094 110.391 52.1094H109.371V48.6055H110.391C111.441 48.6055 111.859 49.0781 111.859 50.3477ZM122.469 53.2383C122.469 50.168 122.395 48.75 121.523 47.7344C120.996 47.0977 120.219 46.625 119.02 46.625C117.82 46.625 117.039 47.0977 116.512 47.7344C115.656 48.7695 115.566 50.168 115.566 53.2383C115.566 56.3047 115.656 57.707 116.512 58.7422C117.039 59.375 117.82 59.8477 119.02 59.8477C120.219 59.8477 120.996 59.375 121.523 58.7422C122.395 57.7227 122.469 56.3047 122.469 53.2383ZM120.434 53.2383C120.434 55.5977 120.379 56.9062 120 57.5234C119.816 57.8125 119.508 58.0156 119.02 58.0156C118.527 58.0156 118.238 57.8125 118.055 57.5234C117.676 56.9062 117.602 55.5977 117.602 53.2383C117.602 50.875 117.676 49.5664 118.055 48.9492C118.238 48.6602 118.527 48.4609 119.02 48.4609C119.508 48.4609 119.816 48.6602 120 48.9492C120.379 49.5664 120.434 50.875 120.434 53.2383ZM130.715 56.2695H128.68C128.664 56.7422 128.59 57.2148 128.371 57.543C128.191 57.832 127.902 58.0156 127.41 58.0156C126.918 58.0156 126.629 57.8125 126.445 57.5234C126.047 56.9062 125.992 55.5977 125.992 53.2383C125.992 50.875 126.047 49.5664 126.445 48.9492C126.629 48.6602 126.918 48.4609 127.41 48.4609C127.902 48.4609 128.191 48.6406 128.371 48.9336C128.59 49.2422 128.664 49.7109 128.68 50.1836H130.715C130.68 49.0391 130.336 48.0586 129.68 47.4609C129.098 46.9141 128.391 46.625 127.41 46.625C126.211 46.625 125.43 47.0977 124.902 47.7344C124.051 48.75 123.957 50.168 123.957 53.2383C123.957 56.3047 124.051 57.7227 124.902 58.7422C125.43 59.375 126.211 59.8477 127.41 59.8477C128.391 59.8477 129.062 59.5742 129.645 59.0312C130.297 58.4297 130.68 57.4336 130.715 56.2695ZM138.543 56.2695H136.512C136.492 56.7422 136.418 57.2148 136.203 57.543C136.02 57.832 135.73 58.0156 135.238 58.0156C134.75 58.0156 134.457 57.8125 134.277 57.5234C133.875 56.9062 133.82 55.5977 133.82 53.2383C133.82 50.875 133.875 49.5664 134.277 48.9492C134.457 48.6602 134.75 48.4609 135.238 48.4609C135.73 48.4609 136.02 48.6406 136.203 48.9336C136.418 49.2422 136.492 49.7109 136.512 50.1836H138.543C138.508 49.0391 138.164 48.0586 137.508 47.4609C136.93 46.9141 136.219 46.625 135.238 46.625C134.039 46.625 133.258 47.0977 132.73 47.7344C131.879 48.75 131.789 50.168 131.789 53.2383C131.789 56.3047 131.879 57.7227 132.73 58.7422C133.258 59.375 134.039 59.8477 135.238 59.8477C136.219 59.8477 136.891 59.5742 137.473 59.0312C138.125 58.4297 138.508 57.4336 138.543 56.2695ZM145.719 48.6055V46.7695H139.344V48.6055H141.504V59.7031H143.539V48.6055H145.719ZM153.766 59.7031L150.625 46.7695H148.645L145.465 59.7031H147.609L148.117 57.1406H151.113L151.641 59.7031H153.766ZM150.734 55.3086H148.516L149.625 49.8945L150.734 55.3086ZM161.559 59.7031V46.7695H159.523V52.2188H157V46.7695H154.965V59.7031H157V54.0547H159.523V59.7031H161.559ZM170.297 53.2383C170.297 50.168 170.223 48.75 169.352 47.7344C168.824 47.0977 168.043 46.625 166.844 46.625C165.645 46.625 164.863 47.0977 164.336 47.7344C163.484 48.7695 163.395 50.168 163.395 53.2383C163.395 56.3047 163.484 57.707 164.336 58.7422C164.863 59.375 165.645 59.8477 166.844 59.8477C168.043 59.8477 168.824 59.375 169.352 58.7422C170.223 57.7227 170.297 56.3047 170.297 53.2383ZM168.262 53.2383C168.262 55.5977 168.207 56.9062 167.824 57.5234C167.645 57.8125 167.336 58.0156 166.844 58.0156C166.355 58.0156 166.062 57.8125 165.883 57.5234C165.5 56.9062 165.426 55.5977 165.426 53.2383C165.426 50.875 165.5 49.5664 165.883 48.9492C166.062 48.6602 166.355 48.4609 166.844 48.4609C167.336 48.4609 167.645 48.6602 167.824 48.9492C168.207 49.5664 168.262 50.875 168.262 53.2383ZM178.723 55.9961C178.723 54.7969 178.578 54.0195 177.98 53.3984C177.797 53.2188 177.543 53.0547 177.27 52.9297C177.543 52.8203 177.762 52.6562 177.941 52.4727C178.543 51.8555 178.688 51.1484 178.688 50.2227C178.688 48.8242 178.469 48.168 177.871 47.5703C177.344 47.0234 176.562 46.7695 175.363 46.7695H172.129V59.7031H175.344C176.562 59.7031 177.344 59.4297 177.887 58.8867C178.508 58.25 178.723 57.5234 178.723 55.9961ZM176.691 55.8516C176.691 57.3594 176.234 57.8672 175.145 57.8672H174.164V53.8359H175.145C176.234 53.8359 176.691 54.418 176.691 55.8516ZM176.652 50.3477C176.652 51.582 176.234 52.1094 175.184 52.1094H174.164V48.6055H175.184C176.234 48.6055 176.652 49.0781 176.652 50.3477ZM187.461 59.7031V46.7695H181.414V53.9453C181.414 57.6133 180.594 57.8672 179.668 57.8672H179.488V59.7031H180.086C181.902 59.7031 183.375 59.1602 183.375 54.1797V48.6055H185.426V59.7031H187.461ZM195.07 59.7031V57.8672H191.676V54.1094H194.602V52.2734H191.676V48.6055H195.07V46.7695H189.641V59.7031H195.07ZM203.43 59.7031V46.7695H201.395V52.2188H198.867V46.7695H196.836V59.7031H198.867V54.0547H201.395V59.7031H203.43ZM207.406 59.7031L210.312 51.7852V59.7031H212.348V46.7695H210.531L207.641 54.6914V46.7695H205.609V59.7031H207.406ZM216.562 59.7031V54.2539H217.867C217.887 56.6328 218.051 57.832 218.812 58.7422C219.34 59.375 220.121 59.8477 221.32 59.8477C222.52 59.8477 223.301 59.375 223.828 58.7422C224.699 57.7227 224.77 56.3047 224.77 53.2383C224.77 50.168 224.699 48.75 223.828 47.7344C223.301 47.0977 222.52 46.625 221.32 46.625C220.121 46.625 219.34 47.0977 218.812 47.7344C218.031 48.6758 217.887 49.9297 217.867 52.4375H216.562V46.7695H214.527V59.7031H216.562ZM222.738 53.2383C222.738 55.5977 222.684 56.9062 222.301 57.5234C222.117 57.8125 221.809 58.0156 221.32 58.0156C220.828 58.0156 220.539 57.8125 220.355 57.5234C219.977 56.9062 219.902 55.5977 219.902 53.2383C219.902 50.875 219.977 49.5664 220.355 48.9492C220.539 48.6602 220.828 48.4609 221.32 48.4609C221.809 48.4609 222.117 48.6602 222.301 48.9492C222.684 49.5664 222.738 50.875 222.738 53.2383ZM240.445 59.7031V46.7695H238.414V57.8672H236.18V46.7695H234.145V57.8672H231.91V46.7695H229.875V59.7031H240.445ZM244.426 59.7031L247.332 51.7852V59.7031H249.367V46.7695H247.547L244.66 54.6914V46.7695H242.625V59.7031H244.426ZM258.141 59.7031V46.7695H256.105V52.2188H253.578V46.7695H251.547V59.7031H253.578V54.0547H256.105V59.7031H258.141Z" fill="white"/>
</g>
<defs>
<clipPath id="clip0_207_264">
<rect width="273" height="85" fill="white"/>
</clipPath>
</defs>
</svg>
